<?xml version="1.0" standalone="no"?>
<!DOCTYPE svg PUBLIC "-//W3C//DTD SVG 1.1//EN" "http://www.w3.org/Graphics/SVG/1.1/DTD/svg11.dtd" >
<svg xmlns="http://www.w3.org/2000/svg" xmlns:xlink="http://www.w3.org/1999/xlink" version="1.1">
<metadata>
Created by FontForge 20170731 at Sat Apr 22 15:30:01 2023
 By Aleksey,,,
Copyright (c) 1988, 1990, 1993, 2003 Linotype Library GmbH, www.linotype.com. All rights reserved. Copyright (c) 1988, 1990, 1993 Adobe Systems Incorporated. All Rights Reserved.
</metadata>
<defs>
<font id="HelveticaNeueLTPro-UltLtCn" horiz-adv-x="266" >
  <font-face 
    font-family="HelveticaNeueLT Pro 27 UltLtCn"
    font-weight="275"
    font-stretch="normal"
    units-per-em="2048"
    panose-1="2 11 3 6 2 2 2 3 2 4"
    ascent="1462"
    descent="-586"
    x-height="1057"
    cap-height="1462"
    bbox="-340 -449 2048 2859"
    underline-thickness="102"
    underline-position="-307"
    unicode-range="U+000D-FB02"
  />
<missing-glyph horiz-adv-x="1048" 
d="M455 240h114v137h-114v-137zM461 479h94q0 107 12 148q11 38 88 106q75 69 102 123t27 123q0 120 -72 194t-182 74q-115 0 -189 -69.5t-87 -210.5l102 -17q11 100 56 147.5t112 47.5q64 0 110 -50.5t46 -123.5q0 -41 -19.5 -75.5t-82.5 -94.5q-67 -67 -95 -121
q-26 -51 -26 -166zM946 102h-844v1264h844v-1264zM1049 1470h-1049v-1470h1049v1470z" />
    <glyph glyph-name="IJ" unicode="IJ" horiz-adv-x="1134" 
d="M131 0v1462h41v-1462h-41zM975 324v1138h41v-1145q0 -174 -82.5 -258t-228.5 -84q-88 0 -153 29.5t-102 83t-54 118.5t-17 144v82h41v-92q0 -158 73 -243t209 -85q62 0 109 15t85.5 49.5t58.5 97t20 150.5z" />
    <glyph glyph-name="ij" unicode="ij" horiz-adv-x="569" 
d="M113 1262v200h41v-200h-41zM113 0v1057h41v-1057h-41zM416 1262v200h41v-200h-41zM416 -154v1211h41v-1207q0 -117 -45 -163.5t-140 -46.5h-26q-21 0 -27 2v36q10 -2 31 -2h24q79 0 110.5 37t31.5 133z" />
    <glyph glyph-name="napostrophe" unicode="&#x22;n" horiz-adv-x="796" 
d="M104 0v1057h41v-191h5q13 78 89.5 146.5t180.5 68.5q272 0 272 -321v-760h-41v756q0 68 -12.5 119.5t-33 83t-50.5 51t-62.5 27t-72.5 7.5q-31 0 -64 -9t-72 -35t-69 -65.5t-50 -107t-20 -153.5v-674h-41zM82 1440v157h41v-161q0 -52 -18.5 -78t-67.5 -35v37q29 9 37 24
t8 56z" />
    <glyph glyph-name="fi" unicode="fi" horiz-adv-x="645" 
d="M160 0v1020h-137v37h137v188q0 123 45 168q28 28 56.5 38.5t94.5 10.5h21q16 0 22 -2v-37q-10 2 -26 2h-27q-80 0 -112.5 -38.5t-32.5 -137.5v-192h180v-37h-180v-1020h-41zM492 1260v202h40v-202h-40zM492 0v1057h40v-1057h-40z" />
    <glyph glyph-name="fl" unicode="fl" horiz-adv-x="645" 
d="M160 0v1020h-137v37h137v188q0 123 45 168q28 28 56.5 38.5t94.5 10.5h21q16 0 22 -2v-37q-10 2 -26 2h-27q-80 0 -112.5 -38.5t-32.5 -137.5v-192h180v-37h-180v-1020h-41zM492 0v1462h40v-1462h-40z" />
    <glyph glyph-name=".notdef" horiz-adv-x="1048" 
d="M455 240h114v137h-114v-137zM461 479h94q0 107 12 148q11 38 88 106q75 69 102 123t27 123q0 120 -72 194t-182 74q-115 0 -189 -69.5t-87 -210.5l102 -17q11 100 56 147.5t112 47.5q64 0 110 -50.5t46 -123.5q0 -41 -19.5 -75.5t-82.5 -94.5q-67 -67 -95 -121
q-26 -51 -26 -166zM946 102h-844v1264h844v-1264zM1049 1470h-1049v-1470h1049v1470z" />
    <glyph glyph-name=".null" horiz-adv-x="1024" 
 />
    <glyph glyph-name=".null" horiz-adv-x="1024" 
 />
    <glyph glyph-name="nonmarkingreturn" horiz-adv-x="682" 
 />
    <glyph glyph-name="CR" unicode="&#xd;" horiz-adv-x="0" 
 />
    <glyph glyph-name="space" unicode=" " horiz-adv-x="491" 
 />
    <glyph glyph-name="exclam" unicode="!" horiz-adv-x="417" 
d="M188 373v1089h41v-1089h-41zM188 0v201h41v-201h-41z" />
    <glyph glyph-name="quotedbl" unicode="&#x22;" horiz-adv-x="530" 
d="M336 1014v448h41v-448h-41zM154 1014v448h41v-448h-41z" />
    <glyph glyph-name="numbersign" unicode="#" horiz-adv-x="983" 
d="M338 909l-53 -393h360l53 393h-360zM170 0l68 479h-193v37h199l53 393h-193v37h199l68 479h41l-68 -479h361l67 479h41l-68 -479h193v-37h-199l-53 -393h193v-37h-199l-68 -479h-41l68 479h-360l-68 -479h-41z" />
    <glyph glyph-name="dollar" unicode="$" horiz-adv-x="983" 
d="M469 -193v168q-98 2 -174 35.5t-121.5 90t-68.5 125.5t-23 147v61h41v-61q0 -163 91 -260t255 -101v717q-70 22 -116.5 41.5t-95 49.5t-76.5 65.5t-46 88.5t-18 120q0 44 10.5 89t36.5 92.5t65 84.5t101 62t139 28v121h41v-121q79 -2 142 -23.5t104 -56.5t68 -81.5
t38.5 -95t11.5 -101.5v-29h-40v33q0 146 -86.5 229t-237.5 88v-657q152 -53 208 -84q144 -78 174 -213q9 -40 9 -86q0 -72 -22 -138.5t-66.5 -124.5t-122.5 -94.5t-180 -40.5v-168h-41zM469 770v643q-150 -7 -230.5 -101.5t-80.5 -226.5q0 -57 17.5 -103t43.5 -76.5
t70.5 -57.5t83 -43t96.5 -35zM510 715v-703q72 4 134 28.5t111 69t77 114.5t28 159q0 44 -11 82.5t-27.5 66.5t-46 54t-55.5 42.5t-67 34t-69.5 27.5t-73.5 25z" />
    <glyph glyph-name="percent" unicode="%" horiz-adv-x="1327" 
d="M336 -37l610 1499h41l-610 -1499h-41zM1169 326q0 56 -4 98.5t-17 85t-35 70t-59.5 44.5t-88.5 17q-74 0 -121 -44.5t-65.5 -112t-18.5 -158.5q0 -314 205 -314q104 0 154 87t50 227zM719 326q0 172 66 262t180 90q253 0 245 -352q-2 -83 -19.5 -147.5t-42.5 -102
t-59 -61.5t-63.5 -32t-60.5 -8q-121 0 -183.5 89t-62.5 262zM117 1098q0 173 66 262.5t179 89.5q254 0 246 -352q-2 -83 -19.5 -147.5t-43 -102t-59.5 -61t-63.5 -31.5t-60.5 -8q-245 0 -245 350zM567 1098q0 56 -4.5 98.5t-17.5 85t-35 70t-59.5 44.5t-88.5 17
q-56 0 -96.5 -25t-63.5 -69.5t-33.5 -99t-10.5 -121.5q0 -314 204 -314q104 0 154.5 87.5t50.5 226.5z" />
    <glyph glyph-name="ampersand" unicode="&#x26;" horiz-adv-x="1062" 
d="M819 268l-375 527l-137 -107q-118 -88 -166.5 -166.5t-48.5 -189.5q0 -77 30.5 -140t79.5 -101t108 -58.5t120 -20.5q135 0 227 65t162 191zM485 1413q-86 0 -150.5 -58.5t-64.5 -154.5q0 -35 15.5 -78.5t46.5 -94t56.5 -87.5t64.5 -90q131 94 189 178.5t58 183.5
q0 88 -57 144.5t-158 56.5zM281 719l139 108q-7 9 -32.5 44t-34.5 48t-30.5 45t-31 49t-24.5 46.5t-21 50.5t-11.5 47.5t-5.5 50.5q0 94 72.5 168t190.5 74q109 0 179 -69.5t70 -174.5q0 -201 -266 -389l363 -508q16 43 25.5 87.5t13.5 77.5t10 101h41q-7 -71 -11.5 -107
t-17.5 -93.5t-33 -104.5l193 -270h-47l-168 229q-71 -127 -171.5 -190.5t-244.5 -63.5q-171 0 -274 106t-103 253q0 115 53 203.5t177 181.5z" />
    <glyph glyph-name="quotesingle" unicode="'" horiz-adv-x="344" 
d="M152 1014v448h41v-448h-41z" />
    <glyph glyph-name="parenleft" unicode="(" horiz-adv-x="417" 
d="M410 -377h-41q-116 217 -177 435.5t-61 463.5q0 283 62.5 503.5t175.5 436.5h41q-238 -443 -238 -940q0 -235 55.5 -444t182.5 -455z" />
    <glyph glyph-name="parenright" unicode=")" horiz-adv-x="417" 
d="M49 -377h-41q238 443 238 940q0 235 -55.5 444t-182.5 455h41q116 -217 177 -435.5t61 -463.5q0 -283 -62.5 -503.5t-175.5 -436.5z" />
    <glyph glyph-name="asterisk" unicode="*" horiz-adv-x="569" 
d="M264 1462h41v-198l164 71l20 -37l-174 -69l123 -164l-30 -25l-123 164l-123 -164l-31 25l123 164l-174 69l20 37l164 -71v198z" />
    <glyph glyph-name="plus" unicode="+" horiz-adv-x="1228" 
d="M594 0v500h-498v37h498v499h41v-499h498v-37h-498v-500h-41z" />
    <glyph glyph-name="comma" unicode="," horiz-adv-x="491" 
d="M225 -6v207h41v-211q0 -163 -86 -238v64q1 2 9.5 16t15.5 29.5t13.5 51t6.5 81.5z" />
    <glyph glyph-name="hyphen" unicode="-" horiz-adv-x="606" 
d="M473 539h-340v36h340v-36z" />
    <glyph glyph-name="period" unicode="." horiz-adv-x="491" 
d="M225 0v201h41v-201h-41z" />
    <glyph glyph-name="slash" unicode="/" horiz-adv-x="569" 
d="M-8 -25l545 1512h41l-545 -1512h-41z" />
    <glyph glyph-name="zero" unicode="0" horiz-adv-x="983" 
d="M133 713q0 -107 6 -193.5t21 -168.5t42 -141.5t66 -105.5t95.5 -69t128.5 -23t128.5 23t95.5 69t65.5 105.5t41.5 141.5t21 168.5t6 193.5q0 141 -10 247t-35 194t-65.5 143.5t-102.5 85.5t-145 30q-100 0 -170.5 -46t-111.5 -138.5t-59 -218t-18 -297.5zM891 713
q0 -186 -20 -318.5t-65.5 -229t-123.5 -143.5t-190 -47t-190 47t-124 143.5t-66 229t-20 318.5q0 135 10.5 241t38 201.5t71.5 158.5t115 99.5t165 36.5q96 0 167 -36t115 -98t70.5 -158t36.5 -201.5t10 -243.5z" />
    <glyph glyph-name="one" unicode="1" horiz-adv-x="983" 
d="M512 0v1413h-4q-44 -86 -157 -165t-201 -87v37q208 55 346 252h57v-1450h-41z" />
    <glyph glyph-name="two" unicode="2" horiz-adv-x="983" 
d="M885 0h-787q0 127 36.5 215.5t115.5 177.5q41 50 234 197.5t212 169.5q70 80 101.5 150t31.5 165q0 149 -85.5 243.5t-241.5 94.5q-86 0 -154 -33t-109 -89.5t-62 -126.5t-21 -148h-41q0 196 106 315t277 119q172 0 272 -101t100 -282q0 -99 -40.5 -183.5t-105 -147
t-142.5 -120t-155.5 -116.5t-142 -122.5t-105 -151t-40.5 -189.5h746v-37z" />
    <glyph glyph-name="three" unicode="3" horiz-adv-x="983" 
d="M416 739v37h49q156 0 246 79t90 239q0 152 -85.5 235.5t-228.5 83.5q-63 0 -119.5 -19t-104.5 -58t-76.5 -106.5t-28.5 -156.5h-41q0 171 102 274t270 103q165 0 259 -96.5t94 -259.5q0 -143 -70.5 -226t-175.5 -106v-4q141 -29 217 -123t76 -236q0 -199 -112.5 -311.5
t-305.5 -112.5q-163 0 -270 110.5t-107 283.5h41q0 -162 95.5 -259.5t240.5 -97.5q185 0 281 105.5t96 283.5q0 92 -34 160t-91.5 105.5t-122.5 55t-137 17.5h-47z" />
    <glyph glyph-name="four" unicode="4" horiz-adv-x="983" 
d="M694 0v412h-624v37l620 1001h45v-1001h178v-37h-178v-412h-41zM694 449v933h-4l-579 -933h583z" />
    <glyph glyph-name="five" unicode="5" horiz-adv-x="983" 
d="M115 690l82 735h612v-36h-576l-73 -633h4q106 192 325 192q175 0 287.5 -120.5t112.5 -346.5q0 -148 -46.5 -261t-141.5 -179t-228 -66q-163 0 -269 101.5t-110 285.5h41q1 -162 94 -256t244 -94q57 0 109.5 15t101.5 50.5t85 88.5t57.5 134t21.5 183q0 205 -99.5 316.5
t-259.5 111.5q-38 0 -77 -9t-86 -31t-89 -68.5t-69 -112.5h-53z" />
    <glyph glyph-name="six" unicode="6" horiz-adv-x="983" 
d="M852 1128h-41q-8 131 -84.5 208t-208.5 77q-82 0 -135.5 -22.5t-99.5 -71.5q-80 -88 -116 -254t-36 -471h4q9 65 35.5 122.5t69.5 105.5t109.5 76t146.5 28q196 0 296.5 -127t100.5 -338q0 -122 -33 -217t-90 -152.5t-127 -87t-149 -29.5q-64 0 -120 17.5t-109.5 61.5
t-91 112.5t-60.5 177t-23 248.5q0 317 42 496t138 270q53 50 110 71t136 21q154 0 241 -90t95 -232zM852 455q0 71 -11 132.5t-37 118t-65.5 96.5t-100 63.5t-136.5 23.5q-73 0 -133 -25t-100 -67.5t-67.5 -99.5t-39.5 -118.5t-12 -127.5q0 -85 20.5 -161.5t60.5 -139.5
t108 -100.5t155 -37.5q91 0 161.5 38t112.5 102.5t63 141.5t21 161z" />
    <glyph glyph-name="seven" unicode="7" horiz-adv-x="983" 
d="M98 1425h787v-51q-233 -270 -392.5 -646.5t-183.5 -727.5h-41q12 338 187 745t389 644h-746v36z" />
    <glyph glyph-name="eight" unicode="8" horiz-adv-x="983" 
d="M492 760q-72 0 -135.5 -24t-114 -69.5t-80 -119t-29.5 -164.5q0 -68 20.5 -131t61.5 -118t112.5 -88.5t164.5 -33.5q75 0 136 22t101.5 58.5t68.5 85.5t40 100.5t12 104.5q0 92 -29.5 165t-79.5 118.5t-113.5 69.5t-135.5 24zM180 1102q0 -143 81.5 -224t232.5 -81
q142 0 227.5 84.5t85.5 220.5q0 142 -79.5 226.5t-233.5 84.5q-141 0 -227.5 -89.5t-86.5 -221.5zM492 -25q-190 0 -295 117t-105 307q0 146 88.5 254.5t202.5 120.5v4q-105 12 -174.5 102t-69.5 218q0 151 96 251.5t259 100.5q167 0 260.5 -95t93.5 -249q0 -135 -66 -216
t-178 -112l-4 -4q114 -12 202.5 -120.5t88.5 -254.5q0 -190 -104.5 -307t-294.5 -117z" />
    <glyph glyph-name="nine" unicode="9" horiz-adv-x="983" 
d="M131 297h41q8 -131 85 -208t208 -77q82 0 135.5 22.5t99.5 71.5q80 88 116 254t36 471h-4q-9 -64 -35.5 -122t-69.5 -105.5t-109.5 -75.5t-146.5 -28q-196 0 -296.5 127t-100.5 338q0 122 33 217t90 152t127 86.5t149 29.5q64 0 120 -17.5t109.5 -61.5t91 -112
t60.5 -176.5t23 -248.5q0 -317 -42 -496t-138 -270q-54 -51 -110.5 -72t-135.5 -21q-152 0 -241.5 91t-94.5 231zM131 971q0 -71 11 -132.5t37 -118t65.5 -96.5t100 -63.5t136.5 -23.5q91 0 161 38t110.5 102t61 139.5t20.5 158.5q0 67 -12.5 129.5t-39.5 119t-66.5 98.5
t-98 66.5t-128.5 24.5q-91 0 -161.5 -38t-112.5 -102t-63 -141t-21 -161z" />
    <glyph glyph-name="colon" unicode=":" horiz-adv-x="491" 
d="M225 0v201h41v-201h-41zM225 807v201h41v-201h-41z" />
    <glyph glyph-name="semicolon" unicode=";" horiz-adv-x="491" 
d="M225 807v201h41v-201h-41zM225 -6v207h41v-211q0 -163 -86 -238v64q1 2 9.5 16t15.5 29.5t13.5 51t6.5 81.5z" />
    <glyph glyph-name="semicolon" unicode="&#x37e;" horiz-adv-x="491" 
d="M225 807v201h41v-201h-41zM225 -6v207h41v-211q0 -163 -86 -238v64q1 2 9.5 16t15.5 29.5t13.5 51t6.5 81.5z" />
    <glyph glyph-name="less" unicode="&#x3c;" horiz-adv-x="1228" 
d="M96 500v37l1037 516v-37l-996 -498l996 -498v-36z" />
    <glyph glyph-name="equal" unicode="=" horiz-adv-x="1228" 
d="M1133 301h-1037v37h1037v-37zM1133 698h-1037v37h1037v-37z" />
    <glyph glyph-name="greater" unicode="&#x3e;" horiz-adv-x="1228" 
d="M96 -16v36l996 498l-996 498v37l1037 -516v-37z" />
    <glyph glyph-name="question" unicode="?" horiz-adv-x="833" 
d="M373 0v201h41v-201h-41zM373 373v137q0 59 19.5 111t51 91.5t69.5 78t76 77.5t69.5 81.5t51 99.5t19.5 122q0 90 -44 155t-111 94.5t-148 29.5q-58 0 -112.5 -20.5t-103 -62t-77.5 -115t-29 -169.5v-47h-41v45q0 97 30 176t80.5 128t115.5 75.5t137 26.5
q159 0 251.5 -89.5t92.5 -228.5q0 -106 -42 -183.5t-159 -194.5q-92 -88 -123.5 -148.5t-31.5 -155.5v-114h-41z" />
    <glyph glyph-name="at" unicode="@" horiz-adv-x="1638" 
d="M1133 1008l43 135h41l-195 -656q-16 -66 -16 -104q0 -32 24.5 -52t61.5 -16q111 0 214.5 81t165.5 205.5t62 250.5q0 115 -39 213.5t-105 168t-153 119t-182.5 73.5t-194.5 24q-206 0 -380 -96t-275 -261.5t-101 -361.5t101 -361.5t275 -261.5t380 -96q204 0 379.5 99
t253.5 237h49q-99 -171 -286.5 -272t-395.5 -101q-162 0 -309.5 60t-254.5 161t-170 241t-63 294t63 294t170 241t254.5 161t309.5 60q195 0 358.5 -80t260 -225t96.5 -324q0 -110 -42.5 -218t-110 -187.5t-156 -129t-176.5 -49.5q-53 0 -89 31.5t-36 83.5q0 37 18 96h-4
q-116 -211 -315 -211q-125 0 -203 84.5t-78 204.5q0 110 35 219.5t97 199.5t158 146t208 56q95 0 162.5 -46.5t84.5 -129.5h5zM424 563q0 -111 71 -181.5t187 -70.5q74 0 143.5 51t117.5 127t84.5 162.5t54.5 159t18 115.5q0 112 -65 166.5t-154 54.5q-131 0 -237.5 -86
t-163 -219t-56.5 -279z" />
    <glyph glyph-name="A" unicode="A" horiz-adv-x="985" 
d="M780 512l-284 913h-4l-285 -913h573zM4 0l465 1462h49l463 -1462h-41l-149 475h-596l-150 -475h-41z" />
    <glyph glyph-name="B" unicode="B" horiz-adv-x="985" 
d="M119 0v1462h373q182 0 279 -91.5t97 -248.5q0 -162 -69 -252t-205 -102v-4q152 -4 235.5 -104t83.5 -259q0 -195 -107.5 -298t-299.5 -103h-387zM160 745v-708h311q203 0 302 88.5t99 273.5q0 346 -378 346h-334zM160 1425v-643h311q82 0 143 15t111 50.5t76 101.5
t26 161q0 315 -338 315h-329z" />
    <glyph glyph-name="C" unicode="C" horiz-adv-x="1024" 
d="M934 485h41q-9 -79 -26.5 -148t-51 -137.5t-79.5 -116.5t-116 -78t-157 -30q-92 0 -166.5 30.5t-124.5 86t-85.5 125.5t-54.5 158.5t-27.5 174t-8.5 181.5t8.5 181.5t27.5 174t54.5 158.5t85.5 125.5t124.5 86t166.5 30.5q75 0 137 -20t104.5 -55.5t74.5 -79t50.5 -95
t28 -98.5t12.5 -95h-41q-5 115 -44.5 204.5t-121.5 145.5t-198 56q-98 0 -174 -40t-123 -106t-77.5 -160.5t-42 -194.5t-11.5 -218t11.5 -218t42 -194.5t77.5 -160.5t123 -106t174 -40q87 0 155.5 35.5t108 85.5t67.5 120t39 122.5t17 109.5z" />
    <glyph glyph-name="D" unicode="D" horiz-adv-x="1024" 
d="M160 1425v-1388h272q242 0 357.5 182t115.5 537q0 170 -22.5 291t-74.5 207.5t-139.5 128.5t-213.5 42h-295zM119 0v1462h352q112 0 197 -37t137 -99t84.5 -154.5t44.5 -192t12 -223.5q0 -176 -27 -309t-73.5 -217t-116 -136.5t-146.5 -73t-173 -20.5h-291z" />
    <glyph glyph-name="E" unicode="E" horiz-adv-x="833" 
d="M119 0v1462h665v-37h-624v-643h579v-37h-579v-708h641v-37h-682z" />
    <glyph glyph-name="F" unicode="F" horiz-adv-x="796" 
d="M119 0v1462h665v-37h-624v-643h579v-37h-579v-745h-41z" />
    <glyph glyph-name="G" unicode="G" horiz-adv-x="1062" 
d="M934 0v317h-4q-17 -69 -48 -129t-77.5 -108.5t-113.5 -76.5t-146 -28q-92 0 -166.5 30.5t-124.5 86t-85.5 125.5t-54.5 158.5t-27.5 174t-8.5 181.5t8.5 181.5t27.5 174t54.5 158.5t85.5 125.5t124.5 86t166.5 30.5q75 0 137 -20t104.5 -55.5t74.5 -79t50.5 -95t28 -98.5
t12.5 -95h-41q-8 182 -100 294t-264 112q-98 0 -174 -40t-123 -106t-77.5 -160.5t-42 -194.5t-11.5 -218t11.5 -218t42 -194.5t77.5 -160.5t123 -106t174 -40q51 0 99.5 14.5t101 54.5t91.5 102t65.5 166t29.5 237v86h-455v37h496v-709h-41z" />
    <glyph glyph-name="H" unicode="H" horiz-adv-x="1024" 
d="M119 0v1462h41v-663h704v663h41v-1462h-41v762h-704v-762h-41z" />
    <glyph glyph-name="I" unicode="I" horiz-adv-x="303" 
d="M131 0v1462h41v-1462h-41z" />
    <glyph glyph-name="J" unicode="J" horiz-adv-x="796" 
d="M637 324v1138h41v-1145q0 -174 -82.5 -258t-228.5 -84q-88 0 -153 29.5t-102 83t-54 118.5t-17 144v82h41v-92q0 -158 73 -243t210 -85q62 0 109 15t85 49.5t58 97t20 150.5z" />
    <glyph glyph-name="K" unicode="K" horiz-adv-x="909" 
d="M119 0v1462h41v-862h4l651 862h47l-469 -616l510 -846h-43l-491 815l-209 -276v-539h-41z" />
    <glyph glyph-name="L" unicode="L" horiz-adv-x="833" 
d="M119 0v1462h41v-1425h624v-37h-665z" />
    <glyph glyph-name="M" unicode="M" horiz-adv-x="1290" 
d="M113 0v1462h67l465 -1396h4l463 1396h66v-1462h-41v1409l-4 4v-4l-463 -1409h-49l-463 1409h-4v-1409h-41z" />
    <glyph glyph-name="N" unicode="N" horiz-adv-x="1024" 
d="M109 0v1462h67l694 -1396h4v1396h41v-1462h-59l-702 1425h-4v-1425h-41z" />
    <glyph glyph-name="O" unicode="O" horiz-adv-x="1099" 
d="M119 731q0 -118 11.5 -218t42 -194.5t77.5 -160.5t123 -106t174 -40q434 0 434 719t-434 719q-98 0 -174 -40t-123 -106t-77.5 -160.5t-42 -194.5t-11.5 -218zM1022 731q0 -62 -1 -103.5t-10 -128t-25 -147.5t-50.5 -137.5t-82 -124.5t-123.5 -81.5t-171 -33.5
q-93 0 -168.5 30.5t-127 86t-88.5 126t-57.5 158t-30 174t-9.5 181.5q0 116 12.5 218t45 203t83.5 173t134.5 117t191.5 45q75 0 138.5 -20t109 -52.5t82 -81.5t60 -98t41 -111t26 -112t13.5 -109.5t6 -94.5t1 -77z" />
    <glyph glyph-name="P" unicode="P" horiz-adv-x="948" 
d="M160 1425v-716h315q50 0 97 10.5t94.5 37t83 66.5t57.5 105t22 147q0 157 -83 253.5t-238 96.5h-348zM119 0v1462h401q153 0 251.5 -104.5t98.5 -284.5q0 -85 -23.5 -154t-62 -114t-91 -76t-108 -44t-114.5 -13h-311v-672h-41z" />
    <glyph glyph-name="Q" unicode="Q" horiz-adv-x="1099" 
d="M653 348l187 -201q141 178 141 584q0 719 -434 719q-98 0 -174 -40t-123 -106t-77.5 -160.5t-42 -194.5t-11.5 -218t11.5 -218t42 -194.5t77.5 -160.5t123 -106t174 -40q167 0 268 107l-192 207zM993 -76l-153 168q-110 -117 -295 -117q-92 0 -166.5 30.5t-124.5 86
t-85.5 125.5t-54.5 158.5t-27.5 174t-8.5 181.5q0 116 12.5 218t45 203t83.5 173t134.5 117t191.5 45q75 0 138.5 -20t109 -52.5t82 -81.5t60 -98t41 -111t26 -112t13.5 -109.5t6 -94.5t1 -77q0 -417 -158 -610l158 -168z" />
    <glyph glyph-name="R" unicode="R" horiz-adv-x="985" 
d="M119 0v1462h395q60 0 111 -10.5t99.5 -38t83 -69.5t55 -110t20.5 -155q0 -161 -77.5 -253.5t-215.5 -110.5v-4q69 -9 118 -30t80 -52.5t49 -81.5t25.5 -106t9.5 -136q5 -169 9.5 -212.5t25.5 -92.5h-41q-12 29 -17 48t-10 80.5t-8 180.5q-4 121 -21.5 193t-62.5 115.5
t-111 58t-179 14.5h-297v-690h-41zM160 1425v-698h280q205 0 303.5 91.5t98.5 260.5q0 346 -332 346h-350z" />
    <glyph glyph-name="S" unicode="S" horiz-adv-x="948" 
d="M63 383v63h41v-63q0 -170 95 -270.5t264 -100.5q79 0 146.5 23t120.5 68t83.5 119.5t30.5 170.5q0 47 -12 87t-28.5 69t-47.5 55.5t-56.5 43t-69 35t-70.5 28t-75 24.5q-78 25 -126.5 44t-103 51t-85 69t-50.5 94t-20 129q0 45 11 92t39 97t69.5 88.5t108.5 63t149 24.5
t148.5 -22t109 -57.5t71 -84t40.5 -99t12 -104.5v-30h-41v34q0 154 -92 240t-252 86q-81 0 -145.5 -28.5t-104.5 -76t-61 -107t-21 -124.5q0 -73 25.5 -128t68.5 -89.5t99 -61t117.5 -47t123 -41.5t117.5 -51t99 -69t68.5 -101t25.5 -143q0 -59 -14 -115.5t-46.5 -110
t-80 -93.5t-119.5 -64.5t-160 -24.5q-83 0 -151 22.5t-114 61t-77.5 91.5t-45.5 111t-14 122z" />
    <glyph glyph-name="T" unicode="T" horiz-adv-x="835" 
d="M397 0v1425h-397v37h836v-37h-398v-1425h-41z" />
    <glyph glyph-name="U" unicode="U" horiz-adv-x="985" 
d="M885 1462v-1067q0 -204 -102 -312t-291 -108q-187 0 -289.5 108.5t-102.5 311.5v1067h41v-1061q0 -389 351 -389q352 0 352 389v1061h41z" />
    <glyph glyph-name="V" unicode="V" horiz-adv-x="909" 
d="M426 0l-414 1462h41l398 -1396h4l401 1396h41l-418 -1462h-53z" />
    <glyph glyph-name="W" unicode="W" horiz-adv-x="1441" 
d="M356 0l-325 1462h41l309 -1396h4l307 1396h58l301 -1396h4l315 1396h41l-332 -1462h-53l-305 1409h-4l-309 -1409h-52z" />
    <glyph glyph-name="X" unicode="X" horiz-adv-x="909" 
d="M12 0l422 756l-395 706h43l375 -669l374 669h41l-393 -706l420 -756h-43l-401 719l-402 -719h-41z" />
    <glyph glyph-name="Y" unicode="Y" horiz-adv-x="872" 
d="M416 0v616l-410 846h43l387 -803l389 803h41l-409 -846v-616h-41z" />
    <glyph glyph-name="Z" unicode="Z" horiz-adv-x="909" 
d="M41 0v41l782 1384h-737v37h778v-41l-782 -1384h786v-37h-827z" />
    <glyph glyph-name="bracketleft" unicode="[" horiz-adv-x="417" 
d="M160 -377v1839h235v-37h-194v-1765h194v-37h-235z" />
    <glyph glyph-name="backslash" unicode="\" horiz-adv-x="569" 
d="M33 1487l545 -1512h-41l-545 1512h41z" />
    <glyph glyph-name="bracketright" unicode="]" horiz-adv-x="417" 
d="M217 -340v1765h-194v37h235v-1839h-235v37h194z" />
    <glyph glyph-name="asciicircum" unicode="^" horiz-adv-x="1228" 
d="M125 498l473 927h33l473 -927h-37l-453 891l-452 -891h-37z" />
    <glyph glyph-name="underscore" unicode="_" horiz-adv-x="1024" 
d="M0 -256v102h1024v-102h-1024z" />
    <glyph glyph-name="grave" unicode="`" 
d="M168 1210l-170 285h41l170 -285h-41z" />
    <glyph glyph-name="a" unicode="a" horiz-adv-x="757" 
d="M608 387v240q-25 -29 -84 -50t-192 -47q-125 -24 -178.5 -85.5t-53.5 -172.5q0 -129 65 -194.5t169 -65.5q44 0 89.5 20.5t88 61.5t69.5 117.5t27 175.5zM59 276q0 233 252 283q161 31 215 53q45 14 63.5 52t18.5 127q0 69 -9 106t-32 68q-27 36 -74.5 57.5t-103.5 21.5
q-51 0 -91 -12t-65.5 -29t-44 -44.5t-27.5 -50t-14 -54.5t-5.5 -48.5t-0.5 -41.5h-41v35q0 116 73 199t216 83q112 0 186 -65t74 -189v-694q0 -100 62 -96q13 0 41 4v-37q-20 -4 -29 -4h-21q-47 0 -70.5 28t-23.5 109v41h-4q-36 -95 -107.5 -149t-168.5 -54
q-128 0 -198.5 80t-70.5 221z" />
    <glyph glyph-name="b" unicode="b" horiz-adv-x="833" 
d="M145 528q0 -255 74.5 -385.5t202.5 -130.5q295 0 295 535q0 497 -287 497q-133 0 -209 -129.5t-76 -386.5zM104 0v1462h41v-618h7q21 67 54 117t91 85t133 35q328 0 328 -542q0 -285 -87.5 -424.5t-244.5 -139.5q-207 0 -274 252h-7v-227h-41z" />
    <glyph glyph-name="c" unicode="c" horiz-adv-x="757" 
d="M713 764h-41q-5 115 -73 197.5t-185 82.5q-67 0 -118.5 -25t-93 -82.5t-63.5 -160.5t-22 -248q0 -516 297 -516q57 0 103.5 22.5t75.5 57.5t49 80.5t29 88t11 83.5h41q-8 -159 -92.5 -264t-216.5 -105q-177 0 -257.5 144t-80.5 440q0 251 83 386.5t255 135.5
q131 0 215 -94.5t84 -222.5z" />
    <glyph glyph-name="d" unicode="d" horiz-adv-x="833" 
d="M688 528q0 258 -76 387t-209 129q-286 0 -286 -497q0 -535 295 -535q127 0 201.5 130.5t74.5 385.5zM688 0v227h-6q-67 -252 -274 -252q-157 0 -244.5 139.5t-87.5 424.5q0 122 16.5 216.5t53 170t101.5 115.5t156 40q46 0 86 -13.5t68.5 -35t53 -53.5t40.5 -63.5
t31 -71.5h6v618h41v-1462h-41z" />
    <glyph glyph-name="e" unicode="e" horiz-adv-x="796" 
d="M117 588h573v71q0 53 -6.5 102.5t-25.5 102.5t-48.5 91.5t-80 63.5t-115.5 25q-286 0 -297 -456zM731 551h-614q0 -124 14.5 -218t47.5 -168.5t92 -113.5t143 -39q57 0 103.5 22.5t75.5 57.5t49 80.5t29 88t11 83.5h41q-8 -159 -92.5 -264t-216.5 -105q-177 0 -257.5 144
t-80.5 440q0 251 83 386.5t255 135.5q71 0 126.5 -24.5t91 -66.5t58 -101.5t32 -124t9.5 -139.5v-74z" />
    <glyph glyph-name="f" unicode="f" horiz-adv-x="378" 
d="M160 0v1020h-137v37h137v188q0 123 45 168q28 28 56.5 38.5t94.5 10.5h21q14 0 20 -2v-37q-8 2 -24 2h-27q-80 0 -112.5 -38.5t-32.5 -137.5v-192h180v-37h-180v-1020h-41z" />
    <glyph glyph-name="g" unicode="g" horiz-adv-x="833" 
d="M674 561q0 483 -279 483q-144 0 -211 -124t-67 -365q0 -518 270 -518q65 0 114 24t89.5 81t62 162.5t21.5 256.5zM674 -4v246h-4q-23 -117 -96 -179.5t-189 -62.5q-144 0 -226.5 131t-82.5 414q0 536 323 536q65 0 117 -23t82.5 -59.5t47.5 -72t24 -70.5h4v201h41v-1063
q0 -79 -15.5 -142.5t-49.5 -116.5t-96 -82.5t-148 -29.5q-38 0 -72.5 6t-72.5 24t-66 46t-47.5 76.5t-22.5 111.5h41q6 -110 68 -168.5t172 -58.5q130 0 199 79.5t69 256.5z" />
    <glyph glyph-name="h" unicode="h" horiz-adv-x="796" 
d="M104 0v1462h41v-596h5q13 78 89.5 146.5t180.5 68.5q272 0 272 -321v-760h-41v756q0 68 -12.5 119.5t-33 83t-50.5 51t-62.5 27t-72.5 7.5q-31 0 -64 -9t-72 -35t-69 -65.5t-50 -107t-20 -153.5v-674h-41z" />
    <glyph glyph-name="i" unicode="i" 
d="M113 1262v200h41v-200h-41zM113 0v1057h41v-1057h-41z" />
    <glyph glyph-name="j" unicode="j" 
d="M113 1262v200h41v-200h-41zM113 -154v1211h41v-1207q0 -117 -45 -163.5t-140 -46.5h-26q-21 0 -27 2v36q10 -2 31 -2h24q79 0 110.5 37t31.5 133z" />
    <glyph glyph-name="k" unicode="k" horiz-adv-x="720" 
d="M104 0v1462h41v-997l500 592h53l-331 -391l391 -666h-47l-373 635l-193 -227v-408h-41z" />
    <glyph glyph-name="l" unicode="l" 
d="M113 0v1462h41v-1462h-41z" />
    <glyph glyph-name="m" unicode="m" horiz-adv-x="1253" 
d="M113 0v1057h41v-170h4q25 83 91 138.5t161 55.5q199 0 229 -207h4q21 80 85.5 143.5t164.5 63.5q124 0 186 -76.5t62 -199.5v-805h-41v805q0 123 -59.5 181t-137.5 58q-120 0 -188 -97t-68 -253v-694h-41v797q0 51 -10 94t-32 78t-61 55t-91 20q-112 0 -185 -97.5
t-73 -289.5v-657h-41z" />
    <glyph glyph-name="n" unicode="n" horiz-adv-x="796" 
d="M104 0v1057h41v-191h5q13 78 89.5 146.5t180.5 68.5q272 0 272 -321v-760h-41v756q0 68 -12.5 119.5t-33 83t-50.5 51t-62.5 27t-72.5 7.5q-31 0 -64 -9t-72 -35t-69 -65.5t-50 -107t-20 -153.5v-674h-41z" />
    <glyph glyph-name="o" unicode="o" horiz-adv-x="833" 
d="M117 528q0 -516 301 -516q157 0 228 126.5t71 389.5t-71 389.5t-228 126.5q-301 0 -301 -516zM418 -25q-174 0 -258 143t-84 410q0 553 342 553q75 0 133.5 -26.5t106.5 -87t74 -171.5t26 -268t-26 -268t-74 -171.5t-106.5 -87t-133.5 -26.5z" />
    <glyph glyph-name="p" unicode="p" horiz-adv-x="833" 
d="M145 528q0 -258 76 -387t209 -129q287 0 287 498q0 90 -7 163t-26 144.5t-49.5 119.5t-82 77.5t-120.5 29.5q-134 0 -210.5 -130t-76.5 -386zM104 -360v1417h41v-228h7q32 122 103 187t175 65q328 0 328 -563q0 -543 -328 -543q-109 0 -178 67t-100 171h-7v-573h-41z" />
    <glyph glyph-name="q" unicode="q" horiz-adv-x="833" 
d="M117 510q0 -498 286 -498q133 0 209 129t76 387q0 256 -76.5 386t-210.5 130q-69 0 -120 -29.5t-82 -77.5t-50 -119.5t-25.5 -144.5t-6.5 -163zM688 -360v573h-6q-83 -238 -279 -238q-327 0 -327 543q0 293 82.5 428t244.5 135q104 0 175.5 -65t103.5 -187h6v228h41
v-1417h-41z" />
    <glyph glyph-name="r" unicode="r" horiz-adv-x="454" 
d="M104 0v1057h41v-191h5q13 78 89.5 146.5t180.5 68.5h41v-37h-41q-31 0 -64 -9t-72 -35t-69 -65.5t-50 -107t-20 -153.5v-674h-41z" />
    <glyph glyph-name="s" unicode="s" horiz-adv-x="681" 
d="M346 -25q-295 0 -295 324v33h41v-39q0 -281 250 -281q65 0 115 23t78 60.5t41.5 80t13.5 88.5q0 54 -17.5 96t-47.5 69.5t-69 48.5t-82 38t-86 34.5t-82 40.5t-69 53t-47.5 76.5t-17.5 106.5q0 51 19.5 98.5t45.5 73.5q74 82 205 82q73 0 126.5 -25.5t82 -68.5t41 -90.5
t12.5 -101.5v-29h-41v35q0 243 -223 243q-106 0 -166.5 -62t-60.5 -163q0 -66 28.5 -113.5t74.5 -74.5t101 -49t110 -46t101 -55t74.5 -85.5t28.5 -129.5q0 -123 -75.5 -207t-209.5 -84z" />
    <glyph glyph-name="t" unicode="t" horiz-adv-x="378" 
d="M160 162v858h-137v37h137v327h41v-327h180v-37h-180v-854q0 -74 24.5 -101.5t91.5 -27.5q53 0 80 6v-37q-31 -6 -82 -6q-77 0 -116 36.5t-39 125.5z" />
    <glyph glyph-name="u" unicode="u" horiz-adv-x="796" 
d="M692 1057v-1057h-41v190h-4q-13 -78 -89.5 -146.5t-180.5 -68.5q-273 0 -273 322v760h41v-756q0 -85 18 -144t52 -89.5t72.5 -43t89.5 -12.5q30 0 62.5 9t71.5 35t69 65.5t50.5 107.5t20.5 154v674h41z" />
    <glyph glyph-name="v" unicode="v" horiz-adv-x="645" 
d="M309 0l-303 1057h41l287 -1020h4l260 1020h41l-277 -1057h-53z" />
    <glyph glyph-name="w" unicode="w" horiz-adv-x="1024" 
d="M238 0l-215 1057h40l201 -1020h4l215 1020h60l209 -1020h4l205 1020h40l-221 -1057h-55l-211 1020h-4l-215 -1020h-57z" />
    <glyph glyph-name="x" unicode="x" horiz-adv-x="645" 
d="M29 0l274 543l-266 514h43l246 -473l239 473h41l-260 -514l270 -543h-43l-249 502l-254 -502h-41z" />
    <glyph glyph-name="y" unicode="y" horiz-adv-x="645" 
d="M313 -8l-309 1065h41l287 -1006l-2 2h4l268 1004h39l-299 -1100q-50 -191 -100 -254t-156 -63q-27 0 -55 4v37q40 -5 61 -5q70 0 115 39q52 52 106 277z" />
    <glyph glyph-name="z" unicode="z" horiz-adv-x="606" 
d="M14 37l531 983h-510v37h551v-37l-531 -983h537v-37h-578v37z" />
    <glyph glyph-name="braceleft" unicode="{" horiz-adv-x="417" 
d="M18 524v37q144 0 144 326v342q0 115 35 174t133 59h110v-37h-110q-79 0 -103 -47.5t-24 -185.5v-320q0 -275 -144 -329q23 -11 39 -21.5t37.5 -35.5t35 -58t23 -88.5t9.5 -126.5v-319q0 -138 24 -186t103 -48h110v-37h-110q-51 0 -85.5 16t-52 49t-24 72.5t-6.5 96.5v342
q0 325 -144 325z" />
    <glyph glyph-name="bar" unicode="|" horiz-adv-x="454" 
d="M207 -25v1512h41v-1512h-41z" />
    <glyph glyph-name="braceright" unicode="}" horiz-adv-x="417" 
d="M-23 -377v37h111q79 0 103 48t24 186v319q0 71 9.5 126.5t23 88.5t34.5 58t37 35.5t39 21.5q-143 54 -143 329v320q0 138 -24 185.5t-103 47.5h-111v37h111q98 0 133 -59t35 -174v-342q0 -326 143 -326v-37q-143 0 -143 -325v-342q0 -57 -6.5 -96.5t-24 -72.5t-52 -49
t-85.5 -16h-111z" />
    <glyph glyph-name="asciitilde" unicode="~" horiz-adv-x="1228" 
d="M190 422l-28 24q56 91 113 127.5t137 36.5q60 0 123.5 -22t108.5 -48.5t101 -48.5t103 -22q40 0 94 38.5t94 106.5l31 -26q-46 -73 -109 -114.5t-110 -41.5q-53 0 -111.5 22t-103.5 48.5t-105.5 48.5t-115.5 22q-69 0 -117 -33t-105 -118z" />
    <glyph glyph-name="uni00A0" unicode="&#xa0;" horiz-adv-x="491" 
 />
    <glyph glyph-name="exclamdown" unicode="&#xa1;" horiz-adv-x="417" 
d="M188 -336v1090h41v-1090h-41zM188 926v200h41v-200h-41z" />
    <glyph glyph-name="cent" unicode="&#xa2;" horiz-adv-x="983" 
d="M489 -213v188q-319 3 -319 553q0 533 319 553v170h41v-170q122 -7 199.5 -99t77.5 -218h-41q-5 112 -66 192.5t-170 87.5v-1032q78 11 133.5 63t80.5 119t28 142h41q0 -84 -31.5 -161t-97.5 -133t-154 -67v-188h-41zM489 12v1032q-62 -4 -110.5 -31.5t-87.5 -85
t-59.5 -158.5t-20.5 -241q0 -141 21.5 -244t61 -161t87.5 -84.5t108 -26.5z" />
    <glyph glyph-name="sterling" unicode="&#xa3;" horiz-adv-x="983" 
d="M98 -25l-32 41q116 102 186 224.5t70 255.5q0 16 -0.5 30t-3 28.5t-4 23.5t-5.5 25t-6.5 23.5t-8.5 28t-9 29.5h-211v37h192q-13 25 -48 89t-52.5 99.5t-34 90t-16.5 100.5q0 65 25.5 126.5t73.5 112t126.5 81t175.5 30.5q167 0 278 -109.5t111 -304.5h-41
q-4 107 -30.5 172.5t-77.5 116.5q-91 88 -244 88q-87 0 -156.5 -27.5t-112 -72.5t-65 -100t-22.5 -113q0 -41 18 -95.5t36.5 -91.5t55 -104t47.5 -88h254v-37h-241q36 -99 36 -186q0 -222 -221 -455l4 -2q80 49 152 49q21 0 40.5 -2t39 -7.5t31 -9t32 -11t27.5 -9.5
q11 -4 34 -12.5t36.5 -13.5t36 -9t44.5 -4q48 0 93 12.5t85.5 35.5t65.5 41.5t58 45.5l22 -28q-77 -70 -149.5 -107t-159.5 -37q-13 0 -28 2t-37.5 7.5t-32 7.5t-40.5 11.5t-36 10.5q-13 4 -41 12.5t-44 13.5t-37 9t-36 4q-17 0 -32.5 -2t-27 -4t-27 -8t-23 -8.5t-24 -12
t-21.5 -12.5t-24 -15.5t-24 -15.5z" />
    <glyph glyph-name="currency" unicode="&#xa4;" horiz-adv-x="983" 
d="M102 713q0 -161 114.5 -275t275.5 -114t275 114t114 275t-114 275t-275 114t-275.5 -114t-114.5 -275zM96 346l78 78q-113 126 -113 289q0 162 113 288l-78 78l29 29l80 -80q121 115 287 115q171 0 286 -115l80 80l29 -29l-78 -78q113 -126 113 -288q0 -166 -115 -287
l80 -80l-29 -29l-78 78q-118 -112 -288 -112q-167 0 -287 114l-80 -80z" />
    <glyph glyph-name="yen" unicode="&#xa5;" horiz-adv-x="983" 
d="M471 0v377h-313v37h313v204h-313v37h291l-381 770h41l380 -763h5l380 763h41l-380 -770h290v-37h-313v-204h313v-37h-313v-377h-41z" />
    <glyph glyph-name="brokenbar" unicode="&#xa6;" horiz-adv-x="454" 
d="M207 940v547h41v-547h-41zM207 -25v547h41v-547h-41z" />
    <glyph glyph-name="section" unicode="&#xa7;" horiz-adv-x="985" 
d="M350 424l301 -203q98 45 150.5 109t52.5 141q0 82 -41.5 144t-138.5 137l-332 227q-112 -55 -161.5 -119.5t-49.5 -159.5q0 -64 50 -129t169 -147zM502 -319q-62 0 -118 19t-103.5 57t-76 103.5t-28.5 151.5v21h41v-19q0 -68 19 -121.5t48.5 -85.5t68 -53t74 -29t71.5 -8
q108 0 192 62t84 170q0 103 -80 180q-50 48 -260.5 191.5t-249.5 185.5q-52 56 -73 96.5t-21 102.5q0 104 56.5 175.5t166.5 125.5q-49 40 -79.5 92t-30.5 104q0 89 44 155.5t112 98t147 31.5q66 0 119.5 -16.5t96 -51t67 -93.5t26.5 -140h-41q0 124 -69 194t-193 70
q-113 0 -190.5 -66t-77.5 -178q0 -53 36 -105t93.5 -96t126.5 -89t138.5 -92.5t127 -97t93.5 -112t36 -129.5q0 -93 -50 -162t-165 -128q65 -56 100 -112t35 -124q0 -125 -92.5 -201.5t-220.5 -76.5z" />
    <glyph glyph-name="dieresis" unicode="&#xa8;" 
d="M242 1247v211h41v-211h-41zM-16 1247v211h41v-211h-41z" />
    <glyph glyph-name="copyright" unicode="&#xa9;" horiz-adv-x="1638" 
d="M104 731q0 -147 56.5 -280.5t152.5 -229.5t228 -152.5t278 -56.5t278 56.5t228 152.5t152.5 229.5t56.5 280.5t-56.5 280.5t-152.5 229.5t-228 152.5t-278 56.5t-278 -56.5t-228 -152.5t-152.5 -229.5t-56.5 -280.5zM1575 731q0 -154 -60 -294t-161 -241t-241 -161
t-294 -60t-294 60t-241 161t-161 241t-60 294t60 294t161 241t241 161t294 60t294 -60t241 -161t161 -241t60 -294zM1225 897h-41q-23 137 -115 208t-233 71q-199 0 -307.5 -119t-108.5 -326q0 -196 112.5 -321t303.5 -125q147 0 236 75t112 215h41q-21 -150 -123.5 -238.5
t-265.5 -88.5q-207 0 -332 134.5t-125 348.5q0 223 121.5 352t335.5 129q159 0 264 -82t125 -233z" />
    <glyph glyph-name="ordfeminine" unicode="&#xaa;" horiz-adv-x="491" 
d="M389 1032v135h-4q-7 -18 -41.5 -29.5t-128.5 -29.5q-77 -13 -110 -47.5t-33 -95.5q0 -70 41 -108t104 -38q27 0 55 11t55.5 33.5t44.5 66.5t17 102zM430 1290v-405q0 -31 6.5 -41t24.5 -10q8 0 28 4v-37q-28 -4 -38 -4q-62 0 -62 112h-4q-7 -59 -53.5 -93t-116.5 -34
q-91 0 -137.5 48t-46.5 137q0 145 166 176q89 15 139 28q30 11 42.5 31.5t16.5 69.5q-5 40 -11 59.5t-22 36.5q-33 45 -108 45q-156 0 -156 -158h-41v29q0 65 51 115.5t146 50.5q72 0 124 -43t52 -117z" />
    <glyph glyph-name="guillemotleft" unicode="&#xab;" horiz-adv-x="645" 
d="M322 268l-201 269v41l201 268v-60l-172 -229l172 -229v-60zM524 268l-200 269v41l200 268v-60l-172 -229l172 -229v-60z" />
    <glyph glyph-name="logicalnot" unicode="&#xac;" horiz-adv-x="1228" 
d="M1092 221v477h-996v37h1037v-514h-41z" />
    <glyph glyph-name="uni00AD" unicode="&#xad;" horiz-adv-x="606" 
d="M473 539h-340v36h340v-36z" />
    <glyph glyph-name="registered" unicode="&#xae;" horiz-adv-x="1638" 
d="M104 731q0 -147 56.5 -280.5t152.5 -229.5t228 -152.5t278 -56.5t278 56.5t228 152.5t152.5 229.5t56.5 280.5t-56.5 280.5t-152.5 229.5t-228 152.5t-278 56.5t-278 -56.5t-228 -152.5t-152.5 -229.5t-56.5 -280.5zM1575 731q0 -154 -60 -294t-161 -241t-241 -161
t-294 -60t-294 60t-241 161t-161 241t-60 294t60 294t161 241t241 161t294 60t294 -60t241 -161t161 -241t60 -294zM561 1147v-414h305q248 0 248 203q0 50 -14.5 88.5t-36.5 61t-53 37t-60 19.5t-61 5h-328zM520 279v905h359q276 0 276 -250q0 -108 -63 -165.5t-166 -72.5
l270 -417h-53l-271 417h-311v-417h-41z" />
    <glyph glyph-name="macron" unicode="&#xaf;" 
d="M-63 1370h393v-37h-393v37z" />
    <glyph glyph-name="degree" unicode="&#xb0;" horiz-adv-x="819" 
d="M662 1157q0 104 -74 178t-178 74t-178 -74t-74 -178t74 -178t178 -74t178 74t74 178zM117 1157q0 123 85 208t208 85t207.5 -85t84.5 -208t-84.5 -208t-207.5 -85t-208 85t-85 208z" />
    <glyph glyph-name="plusminus" unicode="&#xb1;" horiz-adv-x="1228" 
d="M1133 0h-1037v37h1037v-37zM594 176v412h-498v37h498v411h41v-411h498v-37h-498v-412h-41z" />
    <glyph glyph-name="twosuperior" unicode="&#xb2;" horiz-adv-x="638" 
d="M578 573h-517q0 84 22.5 137t70.5 111q25 31 155.5 117.5t141.5 97.5q46 46 66 87.5t20 99.5q0 85 -53 137.5t-154 52.5q-107 0 -163 -66.5t-56 -160.5h-41q0 117 72 190.5t186 73.5t182 -62t68 -171q0 -61 -26.5 -112.5t-68 -88t-92.5 -70.5t-102 -67.5t-92.5 -70
t-68 -87.5t-26.5 -111h476v-37z" />
    <glyph glyph-name="threesuperior" unicode="&#xb3;" horiz-adv-x="638" 
d="M53 801h41q0 -92 61.5 -148.5t151.5 -56.5q114 0 176 62.5t62 164.5q0 70 -41 116t-100.5 63t-131.5 14v37h31q97 0 154 44.5t57 133.5q0 86 -54.5 134t-142.5 48q-83 0 -145.5 -49t-62.5 -145h-41q0 108 66.5 169.5t182.5 61.5q115 0 176.5 -58t61.5 -159
q0 -169 -168 -199v-4q99 -17 149 -71.5t50 -141.5q0 -123 -74 -190q-38 -37 -84.5 -52.5t-128.5 -15.5q-107 0 -176.5 66.5t-69.5 175.5z" />
    <glyph glyph-name="acute" unicode="&#xb4;" 
d="M57 1210l170 285h41l-170 -285h-41z" />
    <glyph glyph-name="mu" unicode="&#xb5;" horiz-adv-x="796" 
d="M692 1057v-1057h-41v190h-4q-13 -78 -89.5 -146.5t-180.5 -68.5q-189 0 -227 144h-5v-479h-41v657v760h41v-756q0 -85 18 -144t52 -89.5t72.5 -43t89.5 -12.5q30 0 62.5 9t71.5 35t69 65.5t50.5 107.5t20.5 154v674h41z" />
    <glyph glyph-name="paragraph" unicode="&#xb6;" horiz-adv-x="1228" 
d="M537 700v725q-165 0 -266 -95t-101 -269q0 -147 109.5 -254t257.5 -107zM537 -295v959q-166 0 -287 118t-121 279q0 196 118 298.5t331 102.5h399v-1757h-41v1720h-358v-1720h-41z" />
    <glyph glyph-name="periodcentered" unicode="&#xb7;" horiz-adv-x="491" 
d="M170 705q0 31 22.5 53t53.5 22t53.5 -22t22.5 -53t-22.5 -53.5t-53.5 -22.5t-53.5 22.5t-22.5 53.5z" />
    <glyph glyph-name="cedilla" unicode="&#xb8;" 
d="M20 -162l115 162h41l-82 -117l4 -4q32 12 70 12q59 0 100 -31t41 -89q0 -55 -50 -104.5t-140 -49.5q-46 0 -94.5 11.5t-67.5 25.5l16 35q68 -35 142 -35q68 0 110.5 32.5t42.5 80.5q0 42 -27.5 65t-80.5 23q-50 0 -76 -9t-47 -28z" />
    <glyph glyph-name="onesuperior" unicode="&#xb9;" horiz-adv-x="638" 
d="M344 573v840h-4q-27 -51 -101 -97.5t-130 -51.5v36q66 12 124.5 52.5t98.5 97.5h53v-877h-41z" />
    <glyph glyph-name="ordmasculine" unicode="&#xba;" horiz-adv-x="641" 
d="M131 1116q0 -158 52.5 -227.5t138.5 -69.5q97 0 142.5 73.5t45.5 223.5t-45.5 223.5t-142.5 73.5q-86 0 -138.5 -69.5t-52.5 -227.5zM322 782q-232 0 -232 334t232 334q52 0 91.5 -16t71.5 -52.5t49 -103.5t17 -162t-17 -162t-49 -103.5t-71.5 -52.5t-91.5 -16z" />
    <glyph glyph-name="guillemotright" unicode="&#xbb;" horiz-adv-x="645" 
d="M324 317l172 240l-172 240v55h4l196 -274v-41l-196 -275h-4v55zM121 317l172 240l-172 240v55h4l197 -274v-41l-197 -275h-4v55z" />
    <glyph glyph-name="onequarter" unicode="&#xbc;" horiz-adv-x="1476" 
d="M307 573v840h-4q-27 -51 -101 -97.5t-130 -51.5v36q66 12 124.5 52.5t98.5 97.5h53v-877h-41zM166 -61l981 1548h41l-981 -1548h-41zM1190 0v229h-420v37l401 611h60v-611h102v-37h-102v-229h-41zM1190 266v574h-4l-375 -574h379z" />
    <glyph glyph-name="onehalf" unicode="&#xbd;" horiz-adv-x="1476" 
d="M1395 0h-516q0 84 22 137.5t70 110.5q25 31 155.5 117.5t141.5 97.5q46 46 66 87t20 99q0 85 -53 138t-154 53q-107 0 -163 -66.5t-56 -161.5h-41q0 117 72 191t186 74t182 -62.5t68 -171.5q0 -48 -16 -90t-43.5 -74t-63.5 -61t-75 -54.5t-78.5 -50.5t-75.5 -54
t-63.5 -60.5t-43.5 -73t-16 -88.5h475v-37zM307 573v840h-4q-27 -51 -101 -97.5t-130 -51.5v36q66 12 124.5 52.5t98.5 97.5h53v-877h-41zM145 -61l981 1548h41l-981 -1548h-41z" />
    <glyph glyph-name="threequarters" unicode="&#xbe;" horiz-adv-x="1476" 
d="M68 801h41q0 -92 61.5 -148.5t151.5 -56.5q114 0 175.5 62.5t61.5 164.5q0 70 -41 116t-100 63t-131 14v37h30q97 0 154 44.5t57 133.5q0 86 -54 134t-142 48q-84 0 -146.5 -49t-62.5 -145h-41q0 108 67 169.5t183 61.5q115 0 176 -57.5t61 -159.5q0 -169 -168 -199v-4
q99 -17 149 -71.5t50 -141.5q0 -123 -74 -190q-38 -37 -84.5 -52.5t-128.5 -15.5q-107 0 -176 66.5t-69 175.5zM299 -61l981 1548h41l-981 -1548h-41zM1262 0v229h-420v37l401 611h60v-611h102v-37h-102v-229h-41zM1262 266v574h-5l-374 -574h379z" />
    <glyph glyph-name="questiondown" unicode="&#xbf;" horiz-adv-x="833" 
d="M461 1126v-200h-41v200h41zM461 754v-138q0 -59 -19.5 -111t-51 -91.5t-69.5 -78t-76.5 -77.5t-70 -81.5t-51 -99.5t-19.5 -122q0 -133 89 -206t215 -73q58 0 112.5 20.5t102.5 62t77 115t29 169.5v47h41v-45q0 -97 -29.5 -175.5t-80.5 -128t-115.5 -75.5t-136.5 -26
q-159 0 -252 89t-93 228q0 105 42.5 185.5t158.5 193.5q93 88 124.5 148t31.5 155v115h41z" />
    <glyph glyph-name="Agrave" unicode="&#xc0;" horiz-adv-x="985" 
d="M780 512l-284 913h-4l-285 -913h573zM4 0l465 1462h49l463 -1462h-41l-149 475h-596l-150 -475h-41zM477 1567l-170 284h41l170 -284h-41z" />
    <glyph glyph-name="Aacute" unicode="&#xc1;" horiz-adv-x="985" 
d="M780 512l-284 913h-4l-285 -913h573zM4 0l465 1462h49l463 -1462h-41l-149 475h-596l-150 -475h-41zM469 1567l170 284h41l-170 -284h-41z" />
    <glyph glyph-name="Acircumflex" unicode="&#xc2;" horiz-adv-x="985" 
d="M780 512l-284 913h-4l-285 -913h573zM4 0l465 1462h49l463 -1462h-41l-149 475h-596l-150 -475h-41zM285 1567l180 284h57l180 -284h-40l-168 256l-168 -256h-41z" />
    <glyph glyph-name="Atilde" unicode="&#xc3;" horiz-adv-x="985" 
d="M780 512l-284 913h-4l-285 -913h573zM4 0l465 1462h49l463 -1462h-41l-149 475h-596l-150 -475h-41zM307 1630h-41q6 58 35.5 106t85.5 48q32 0 62 -18.5t49.5 -40t46 -40t51.5 -18.5q71 0 84 121h41q-5 -30 -11 -51t-19.5 -49t-37.5 -43t-57 -15q-28 0 -60.5 18.5
t-56.5 40t-50.5 40t-43.5 18.5q-53 0 -78 -117z" />
    <glyph glyph-name="Adieresis" unicode="&#xc4;" horiz-adv-x="985" 
d="M780 512l-284 913h-4l-285 -913h573zM4 0l465 1462h49l463 -1462h-41l-149 475h-596l-150 -475h-41zM602 1604v211h41v-211h-41zM344 1604v211h41v-211h-41z" />
    <glyph glyph-name="Aring" unicode="&#xc5;" horiz-adv-x="985" 
d="M780 512l-284 913h-4l-285 -913h573zM4 0l465 1462h49l463 -1462h-41l-149 475h-596l-150 -475h-41zM319 1692q0 72 51.5 123t123.5 51t123 -51t51 -123q0 -73 -51 -123.5t-123 -50.5q-74 0 -124.5 50.5t-50.5 123.5zM627 1692q0 59 -38.5 98t-94.5 39t-95 -39t-39 -98
t39 -98.5t95 -39.5t94.5 39.5t38.5 98.5z" />
    <glyph glyph-name="AE" unicode="&#xc6;" horiz-adv-x="1402" 
d="M256 512h424v913h-14zM-14 0l657 1462h713v-37h-635v-643h592v-37h-592v-708h665v-37h-706v475h-440l-213 -475h-41z" />
    <glyph glyph-name="Ccedilla" unicode="&#xc7;" horiz-adv-x="1024" 
d="M934 485h41q-9 -80 -27 -149t-51.5 -136.5t-79.5 -115t-115 -77.5t-155 -32l-64 -92l4 -4q32 12 70 12q59 0 100 -31t41 -89q0 -55 -50 -104.5t-140 -49.5q-46 0 -94.5 11.5t-67.5 25.5l16 35q68 -35 142 -35q68 0 110.5 32.5t42.5 80.5q0 42 -27.5 65t-80.5 23
q-50 0 -76 -9t-47 -28l-16 20l98 139q-123 9 -197 66q-233 161 -233 688q0 96 8.5 181.5t27.5 174t54.5 158.5t85.5 125.5t124.5 86t166.5 30.5q75 0 137 -20t104.5 -55.5t74.5 -79t50.5 -95t28 -98.5t12.5 -95h-41q-5 115 -44.5 204.5t-121.5 145.5t-198 56q-98 0 -174 -40
t-123 -106t-77.5 -160.5t-42 -194.5t-11.5 -218t11.5 -218t42 -194.5t77.5 -160.5t123 -106t174 -40q87 0 155.5 35.5t108 85.5t67.5 120t39 122.5t17 109.5z" />
    <glyph glyph-name="Egrave" unicode="&#xc8;" horiz-adv-x="833" 
d="M119 0v1462h665v-37h-624v-643h579v-37h-579v-708h641v-37h-682zM473 1567l-170 284h41l170 -284h-41z" />
    <glyph glyph-name="Eacute" unicode="&#xc9;" horiz-adv-x="833" 
d="M119 0v1462h665v-37h-624v-643h579v-37h-579v-708h641v-37h-682zM418 1567l170 284h41l-170 -284h-41z" />
    <glyph glyph-name="Ecircumflex" unicode="&#xca;" horiz-adv-x="833" 
d="M119 0v1462h665v-37h-624v-643h579v-37h-579v-708h641v-37h-682zM248 1567l180 284h57l181 -284h-41l-168 256l-168 -256h-41z" />
    <glyph glyph-name="Edieresis" unicode="&#xcb;" horiz-adv-x="833" 
d="M119 0v1462h665v-37h-624v-643h579v-37h-579v-708h641v-37h-682zM567 1604v211h41v-211h-41zM309 1604v211h41v-211h-41z" />
    <glyph glyph-name="Igrave" unicode="&#xcc;" horiz-adv-x="303" 
d="M131 0v1462h41v-1462h-41zM131 1567l-170 284h41l170 -284h-41z" />
    <glyph glyph-name="Iacute" unicode="&#xcd;" horiz-adv-x="303" 
d="M131 0v1462h41v-1462h-41zM129 1567l170 284h41l-170 -284h-41z" />
    <glyph glyph-name="Icircumflex" unicode="&#xce;" horiz-adv-x="303" 
d="M131 0v1462h41v-1462h-41zM-57 1567l180 284h57l180 -284h-41l-167 256l-168 -256h-41z" />
    <glyph glyph-name="Idieresis" unicode="&#xcf;" horiz-adv-x="303" 
d="M131 0v1462h41v-1462h-41zM260 1604v211h41v-211h-41zM2 1604v211h41v-211h-41z" />
    <glyph glyph-name="Eth" unicode="&#xd0;" horiz-adv-x="1024" 
d="M160 745v-708h272q242 0 357.5 182t115.5 537q0 170 -22.5 291t-74.5 207.5t-139.5 128.5t-213.5 42h-295v-643h364v-37h-364zM119 0v745h-119v37h119v680h352q112 0 197 -37t137 -99t84.5 -154.5t44.5 -192t12 -223.5q0 -176 -27 -309t-73.5 -217t-116 -136.5
t-146.5 -73t-173 -20.5h-291z" />
    <glyph glyph-name="Ntilde" unicode="&#xd1;" horiz-adv-x="1024" 
d="M109 0v1462h67l694 -1396h4v1396h41v-1462h-59l-702 1425h-4v-1425h-41zM334 1630h-41q6 58 35.5 106t85.5 48q32 0 62 -18.5t49.5 -40t46 -40t51.5 -18.5q71 0 84 121h41q-5 -30 -11 -51t-19.5 -49t-37.5 -43t-57 -15q-28 0 -60.5 18.5t-56.5 40t-50.5 40t-43.5 18.5
q-53 0 -78 -117z" />
    <glyph glyph-name="Ograve" unicode="&#xd2;" horiz-adv-x="1099" 
d="M119 731q0 -118 11.5 -218t42 -194.5t77.5 -160.5t123 -106t174 -40q434 0 434 719t-434 719q-98 0 -174 -40t-123 -106t-77.5 -160.5t-42 -194.5t-11.5 -218zM1022 731q0 -62 -1 -103.5t-10 -128t-25 -147.5t-50.5 -137.5t-82 -124.5t-123.5 -81.5t-171 -33.5
q-93 0 -168.5 30.5t-127 86t-88.5 126t-57.5 158t-30 174t-9.5 181.5q0 116 12.5 218t45 203t83.5 173t134.5 117t191.5 45q75 0 138.5 -20t109 -52.5t82 -81.5t60 -98t41 -111t26 -112t13.5 -109.5t6 -94.5t1 -77zM553 1567l-170 284h41l170 -284h-41z" />
    <glyph glyph-name="Oacute" unicode="&#xd3;" horiz-adv-x="1099" 
d="M119 731q0 -118 11.5 -218t42 -194.5t77.5 -160.5t123 -106t174 -40q434 0 434 719t-434 719q-98 0 -174 -40t-123 -106t-77.5 -160.5t-42 -194.5t-11.5 -218zM1022 731q0 -62 -1 -103.5t-10 -128t-25 -147.5t-50.5 -137.5t-82 -124.5t-123.5 -81.5t-171 -33.5
q-93 0 -168.5 30.5t-127 86t-88.5 126t-57.5 158t-30 174t-9.5 181.5q0 116 12.5 218t45 203t83.5 173t134.5 117t191.5 45q75 0 138.5 -20t109 -52.5t82 -81.5t60 -98t41 -111t26 -112t13.5 -109.5t6 -94.5t1 -77zM524 1567l170 284h41l-170 -284h-41z" />
    <glyph glyph-name="Ocircumflex" unicode="&#xd4;" horiz-adv-x="1099" 
d="M119 731q0 -118 11.5 -218t42 -194.5t77.5 -160.5t123 -106t174 -40q434 0 434 719t-434 719q-98 0 -174 -40t-123 -106t-77.5 -160.5t-42 -194.5t-11.5 -218zM1022 731q0 -62 -1 -103.5t-10 -128t-25 -147.5t-50.5 -137.5t-82 -124.5t-123.5 -81.5t-171 -33.5
q-93 0 -168.5 30.5t-127 86t-88.5 126t-57.5 158t-30 174t-9.5 181.5q0 116 12.5 218t45 203t83.5 173t134.5 117t191.5 45q75 0 138.5 -20t109 -52.5t82 -81.5t60 -98t41 -111t26 -112t13.5 -109.5t6 -94.5t1 -77zM338 1567l180 284h57l181 -284h-41l-168 256l-168 -256
h-41z" />
    <glyph glyph-name="Otilde" unicode="&#xd5;" horiz-adv-x="1099" 
d="M119 731q0 -118 11.5 -218t42 -194.5t77.5 -160.5t123 -106t174 -40q434 0 434 719t-434 719q-98 0 -174 -40t-123 -106t-77.5 -160.5t-42 -194.5t-11.5 -218zM1022 731q0 -62 -1 -103.5t-10 -128t-25 -147.5t-50.5 -137.5t-82 -124.5t-123.5 -81.5t-171 -33.5
q-93 0 -168.5 30.5t-127 86t-88.5 126t-57.5 158t-30 174t-9.5 181.5q0 116 12.5 218t45 203t83.5 173t134.5 117t191.5 45q75 0 138.5 -20t109 -52.5t82 -81.5t60 -98t41 -111t26 -112t13.5 -109.5t6 -94.5t1 -77zM360 1630h-41q6 58 35.5 106t85.5 48q32 0 62 -18.5
t49.5 -40t46 -40t51.5 -18.5q71 0 84 121h41q-5 -30 -11 -51t-19.5 -49t-37.5 -43t-57 -15q-28 0 -60.5 18.5t-56.5 40t-50.5 40t-43.5 18.5q-53 0 -78 -117z" />
    <glyph glyph-name="Odieresis" unicode="&#xd6;" horiz-adv-x="1099" 
d="M119 731q0 -118 11.5 -218t42 -194.5t77.5 -160.5t123 -106t174 -40q434 0 434 719t-434 719q-98 0 -174 -40t-123 -106t-77.5 -160.5t-42 -194.5t-11.5 -218zM1022 731q0 -62 -1 -103.5t-10 -128t-25 -147.5t-50.5 -137.5t-82 -124.5t-123.5 -81.5t-171 -33.5
q-93 0 -168.5 30.5t-127 86t-88.5 126t-57.5 158t-30 174t-9.5 181.5q0 116 12.5 218t45 203t83.5 173t134.5 117t191.5 45q75 0 138.5 -20t109 -52.5t82 -81.5t60 -98t41 -111t26 -112t13.5 -109.5t6 -94.5t1 -77zM651 1604v211h41v-211h-41zM393 1604v211h41v-211h-41z
" />
    <glyph glyph-name="multiply" unicode="&#xd7;" horiz-adv-x="1228" 
d="M162 88l430 428l-430 430l22 25l430 -430l430 430l23 -25l-430 -430l430 -428l-25 -22l-428 428l-428 -428z" />
    <glyph glyph-name="Oslash" unicode="&#xd8;" horiz-adv-x="1099" 
d="M193 -55l61 147q-176 181 -176 639q0 116 12.5 218t45 203t83.5 173t134.5 117t191.5 45q160 0 260 -86l55 133l37 -14l-61 -146q186 -180 186 -643q0 -42 -1 -77t-6 -94.5t-13.5 -109.5t-26 -112t-41 -111t-60 -98t-82 -81.5t-109 -52.5t-138.5 -20q-152 0 -258 88
l-58 -135zM821 1337l-518 -1235q93 -90 244 -90q434 0 434 719q0 435 -160 606zM270 133l521 1235q-95 82 -244 82q-98 0 -174 -40t-123 -106t-77.5 -160.5t-42 -194.5t-11.5 -218q0 -426 151 -598z" />
    <glyph glyph-name="Ugrave" unicode="&#xd9;" horiz-adv-x="985" 
d="M885 1462v-1067q0 -204 -102 -312t-291 -108q-187 0 -289.5 108.5t-102.5 311.5v1067h41v-1061q0 -389 351 -389q352 0 352 389v1061h41zM502 1567l-170 284h41l170 -284h-41z" />
    <glyph glyph-name="Uacute" unicode="&#xda;" horiz-adv-x="985" 
d="M885 1462v-1067q0 -204 -102 -312t-291 -108q-187 0 -289.5 108.5t-102.5 311.5v1067h41v-1061q0 -389 351 -389q352 0 352 389v1061h41zM469 1567l170 284h41l-170 -284h-41z" />
    <glyph glyph-name="Ucircumflex" unicode="&#xdb;" horiz-adv-x="985" 
d="M885 1462v-1067q0 -204 -102 -312t-291 -108q-187 0 -289.5 108.5t-102.5 311.5v1067h41v-1061q0 -389 351 -389q352 0 352 389v1061h41zM285 1567l180 284h57l180 -284h-40l-168 256l-168 -256h-41z" />
    <glyph glyph-name="Udieresis" unicode="&#xdc;" horiz-adv-x="985" 
d="M885 1462v-1067q0 -204 -102 -312t-291 -108q-187 0 -289.5 108.5t-102.5 311.5v1067h41v-1061q0 -389 351 -389q352 0 352 389v1061h41zM598 1604v211h41v-211h-41zM340 1604v211h41v-211h-41z" />
    <glyph glyph-name="Yacute" unicode="&#xdd;" horiz-adv-x="872" 
d="M416 0v616l-410 846h43l387 -803l389 803h41l-409 -846v-616h-41zM412 1567l170 284h41l-170 -284h-41z" />
    <glyph glyph-name="Thorn" unicode="&#xde;" horiz-adv-x="948" 
d="M160 1130v-720h315q50 0 97 10.5t94.5 37t83 67t57.5 106.5t22 149q0 157 -83 253.5t-238 96.5h-348zM119 0v1462h41v-295h360q153 0 251.5 -104.5t98.5 -284.5q0 -107 -35 -188t-94 -126.5t-127 -68t-143 -22.5h-311v-373h-41z" />
    <glyph glyph-name="germandbls" unicode="&#xdf;" horiz-adv-x="833" 
d="M104 0v1128q0 146 77.5 240t224.5 94q139 0 220 -82t81 -237q0 -108 -52 -187.5t-147 -111.5v-4q142 -28 208 -130.5t66 -260.5q0 -131 -42.5 -233.5t-131.5 -165t-213 -62.5q-57 0 -80 6v37q37 -6 88 -6q160 0 249 119t89 305q0 196 -97.5 283t-283.5 87h-30v37h24
q162 0 237 79.5t75 211.5q0 133 -68.5 205.5t-187.5 72.5q-72 0 -125 -25t-82.5 -68.5t-43.5 -95t-14 -112.5v-1124h-41z" />
    <glyph glyph-name="agrave" unicode="&#xe0;" horiz-adv-x="757" 
d="M608 387v240q-25 -29 -84 -50t-192 -47q-125 -24 -178.5 -85.5t-53.5 -172.5q0 -129 65 -194.5t169 -65.5q44 0 89.5 20.5t88 61.5t69.5 117.5t27 175.5zM59 276q0 233 252 283q161 31 215 53q45 14 63.5 52t18.5 127q0 69 -9 106t-32 68q-27 36 -74.5 57.5t-103.5 21.5
q-51 0 -91 -12t-65.5 -29t-44 -44.5t-27.5 -50t-14 -54.5t-5.5 -48.5t-0.5 -41.5h-41v35q0 116 73 199t216 83q112 0 186 -65t74 -189v-694q0 -100 62 -96q13 0 41 4v-37q-20 -4 -29 -4h-21q-47 0 -70.5 28t-23.5 109v41h-4q-36 -95 -107.5 -149t-168.5 -54
q-128 0 -198.5 80t-70.5 221zM375 1210l-170 285h41l170 -285h-41z" />
    <glyph glyph-name="aacute" unicode="&#xe1;" horiz-adv-x="757" 
d="M608 387v240q-25 -29 -84 -50t-192 -47q-125 -24 -178.5 -85.5t-53.5 -172.5q0 -129 65 -194.5t169 -65.5q44 0 89.5 20.5t88 61.5t69.5 117.5t27 175.5zM59 276q0 233 252 283q161 31 215 53q45 14 63.5 52t18.5 127q0 69 -9 106t-32 68q-27 36 -74.5 57.5t-103.5 21.5
q-51 0 -91 -12t-65.5 -29t-44 -44.5t-27.5 -50t-14 -54.5t-5.5 -48.5t-0.5 -41.5h-41v35q0 116 73 199t216 83q112 0 186 -65t74 -189v-694q0 -100 62 -96q13 0 41 4v-37q-20 -4 -29 -4h-21q-47 0 -70.5 28t-23.5 109v41h-4q-36 -95 -107.5 -149t-168.5 -54
q-128 0 -198.5 80t-70.5 221zM367 1210l170 285h41l-170 -285h-41z" />
    <glyph glyph-name="acircumflex" unicode="&#xe2;" horiz-adv-x="757" 
d="M608 387v240q-25 -29 -84 -50t-192 -47q-125 -24 -178.5 -85.5t-53.5 -172.5q0 -129 65 -194.5t169 -65.5q44 0 89.5 20.5t88 61.5t69.5 117.5t27 175.5zM59 276q0 233 252 283q161 31 215 53q45 14 63.5 52t18.5 127q0 69 -9 106t-32 68q-27 36 -74.5 57.5t-103.5 21.5
q-51 0 -91 -12t-65.5 -29t-44 -44.5t-27.5 -50t-14 -54.5t-5.5 -48.5t-0.5 -41.5h-41v35q0 116 73 199t216 83q112 0 186 -65t74 -189v-694q0 -100 62 -96q13 0 41 4v-37q-20 -4 -29 -4h-21q-47 0 -70.5 28t-23.5 109v41h-4q-36 -95 -107.5 -149t-168.5 -54
q-128 0 -198.5 80t-70.5 221zM180 1210l180 285h58l180 -285h-41l-168 256l-168 -256h-41z" />
    <glyph glyph-name="atilde" unicode="&#xe3;" horiz-adv-x="757" 
d="M608 387v240q-25 -29 -84 -50t-192 -47q-125 -24 -178.5 -85.5t-53.5 -172.5q0 -129 65 -194.5t169 -65.5q44 0 89.5 20.5t88 61.5t69.5 117.5t27 175.5zM59 276q0 233 252 283q161 31 215 53q45 14 63.5 52t18.5 127q0 69 -9 106t-32 68q-27 36 -74.5 57.5t-103.5 21.5
q-51 0 -91 -12t-65.5 -29t-44 -44.5t-27.5 -50t-14 -54.5t-5.5 -48.5t-0.5 -41.5h-41v35q0 116 73 199t216 83q112 0 186 -65t74 -189v-694q0 -100 62 -96q13 0 41 4v-37q-20 -4 -29 -4h-21q-47 0 -70.5 28t-23.5 109v41h-4q-36 -95 -107.5 -149t-168.5 -54
q-128 0 -198.5 80t-70.5 221zM193 1274h-41q6 58 35 105.5t85 47.5q32 0 62 -18t49.5 -40t46 -40t51.5 -18q71 0 84 121h41q-5 -30 -11 -51t-19.5 -49t-37.5 -43t-57 -15q-28 0 -60.5 18.5t-56.5 40t-50.5 40t-43.5 18.5q-30 0 -47.5 -30.5t-29.5 -86.5z" />
    <glyph glyph-name="adieresis" unicode="&#xe4;" horiz-adv-x="757" 
d="M608 387v240q-25 -29 -84 -50t-192 -47q-125 -24 -178.5 -85.5t-53.5 -172.5q0 -129 65 -194.5t169 -65.5q44 0 89.5 20.5t88 61.5t69.5 117.5t27 175.5zM59 276q0 233 252 283q161 31 215 53q45 14 63.5 52t18.5 127q0 69 -9 106t-32 68q-27 36 -74.5 57.5t-103.5 21.5
q-51 0 -91 -12t-65.5 -29t-44 -44.5t-27.5 -50t-14 -54.5t-5.5 -48.5t-0.5 -41.5h-41v35q0 116 73 199t216 83q112 0 186 -65t74 -189v-694q0 -100 62 -96q13 0 41 4v-37q-20 -4 -29 -4h-21q-47 0 -70.5 28t-23.5 109v41h-4q-36 -95 -107.5 -149t-168.5 -54
q-128 0 -198.5 80t-70.5 221zM494 1247v211h41v-211h-41zM236 1247v211h40v-211h-40z" />
    <glyph glyph-name="aring" unicode="&#xe5;" horiz-adv-x="757" 
d="M608 387v240q-25 -29 -84 -50t-192 -47q-125 -24 -178.5 -85.5t-53.5 -172.5q0 -129 65 -194.5t169 -65.5q44 0 89.5 20.5t88 61.5t69.5 117.5t27 175.5zM59 276q0 233 252 283q161 31 215 53q45 14 63.5 52t18.5 127q0 69 -9 106t-32 68q-27 36 -74.5 57.5t-103.5 21.5
q-51 0 -91 -12t-65.5 -29t-44 -44.5t-27.5 -50t-14 -54.5t-5.5 -48.5t-0.5 -41.5h-41v35q0 116 73 199t216 83q112 0 186 -65t74 -189v-694q0 -100 62 -96q13 0 41 4v-37q-20 -4 -29 -4h-21q-47 0 -70.5 28t-23.5 109v41h-4q-36 -95 -107.5 -149t-168.5 -54
q-128 0 -198.5 80t-70.5 221zM205 1384q0 72 51 123.5t123 51.5t123 -51.5t51 -123.5q0 -73 -51 -123.5t-123 -50.5q-73 0 -123.5 50t-50.5 124zM512 1384q0 59 -38.5 98.5t-94.5 39.5t-94.5 -39.5t-38.5 -98.5t38.5 -98t94.5 -39t94.5 39t38.5 98z" />
    <glyph glyph-name="ae" unicode="&#xe6;" horiz-adv-x="1214" 
d="M573 387v221h-4q-19 -32 -204 -73q-89 -20 -133.5 -37.5t-79.5 -55.5q-23 -23 -37.5 -69t-14.5 -99q0 -112 53.5 -187t159.5 -75q62 0 110 24.5t75.5 62.5t45 90t23.5 99.5t6 98.5zM59 274q0 54 16 109t44 84q40 41 111.5 67.5t213.5 57.5q93 20 115.5 47.5t22.5 118.5
q0 73 -8 117.5t-18 63t-34 48.5q-23 26 -64.5 41.5t-88.5 15.5q-122 0 -180 -76.5t-58 -191.5v-10h-41v12q0 146 74.5 224.5t206.5 78.5q96 0 163.5 -53t71.5 -139h4q7 25 24.5 55t46.5 62.5t75.5 53.5t99.5 21q150 0 224.5 -131t74.5 -360v-39h-541v-141q0 -50 4.5 -97.5
t20 -104.5t40 -98.5t68.5 -69.5t103 -28q68 0 118 32t77.5 87t41 114t15.5 126h41q-2 -77 -18 -143t-48.5 -125.5t-91 -93.5t-137.5 -34q-54 0 -98 19.5t-71 47.5t-46 65.5t-27.5 69t-11.5 61.5h-4q-19 -116 -88 -189.5t-187 -73.5q-124 0 -190 86t-66 213zM614 588h500
q0 67 -5.5 126t-23 121.5t-45 107t-75 73t-109.5 28.5q-134 0 -203 -153q-39 -91 -39 -303z" />
    <glyph glyph-name="ccedilla" unicode="&#xe7;" horiz-adv-x="757" 
d="M713 764h-41q-5 115 -73 197.5t-185 82.5q-67 0 -118.5 -25t-93 -82.5t-63.5 -160.5t-22 -248q0 -516 297 -516q57 0 103.5 22.5t75.5 57.5t49 80.5t29 88t11 83.5h41q-8 -159 -92.5 -264t-216.5 -105l-64 -92l4 -4q32 12 70 12q59 0 100 -31t41 -89q0 -55 -50 -104.5
t-140 -49.5q-46 0 -94.5 11.5t-67.5 25.5l16 35q68 -35 142 -35q68 0 110.5 32.5t42.5 80.5q0 42 -27.5 65t-80.5 23q-50 0 -76 -9t-47 -28l-17 20l99 139q-151 15 -221 144q-78 150 -78 438q0 251 83 386.5t255 135.5q131 0 215 -94.5t84 -222.5z" />
    <glyph glyph-name="egrave" unicode="&#xe8;" horiz-adv-x="796" 
d="M117 588h573v71q0 53 -6.5 102.5t-25.5 102.5t-48.5 91.5t-80 63.5t-115.5 25q-286 0 -297 -456zM731 551h-614q0 -124 14.5 -218t47.5 -168.5t92 -113.5t143 -39q57 0 103.5 22.5t75.5 57.5t49 80.5t29 88t11 83.5h41q-8 -159 -92.5 -264t-216.5 -105q-177 0 -257.5 144
t-80.5 440q0 251 83 386.5t255 135.5q71 0 126.5 -24.5t91 -66.5t58 -101.5t32 -124t9.5 -139.5v-74zM418 1210l-170 285h41l170 -285h-41z" />
    <glyph glyph-name="eacute" unicode="&#xe9;" horiz-adv-x="796" 
d="M117 588h573v71q0 53 -6.5 102.5t-25.5 102.5t-48.5 91.5t-80 63.5t-115.5 25q-286 0 -297 -456zM731 551h-614q0 -124 14.5 -218t47.5 -168.5t92 -113.5t143 -39q57 0 103.5 22.5t75.5 57.5t49 80.5t29 88t11 83.5h41q-8 -159 -92.5 -264t-216.5 -105q-177 0 -257.5 144
t-80.5 440q0 251 83 386.5t255 135.5q71 0 126.5 -24.5t91 -66.5t58 -101.5t32 -124t9.5 -139.5v-74zM391 1210l170 285h41l-170 -285h-41z" />
    <glyph glyph-name="ecircumflex" unicode="&#xea;" horiz-adv-x="796" 
d="M117 588h573v71q0 53 -6.5 102.5t-25.5 102.5t-48.5 91.5t-80 63.5t-115.5 25q-286 0 -297 -456zM731 551h-614q0 -124 14.5 -218t47.5 -168.5t92 -113.5t143 -39q57 0 103.5 22.5t75.5 57.5t49 80.5t29 88t11 83.5h41q-8 -159 -92.5 -264t-216.5 -105q-177 0 -257.5 144
t-80.5 440q0 251 83 386.5t255 135.5q71 0 126.5 -24.5t91 -66.5t58 -101.5t32 -124t9.5 -139.5v-74zM205 1210l180 285h57l181 -285h-41l-168 256l-168 -256h-41z" />
    <glyph glyph-name="edieresis" unicode="&#xeb;" horiz-adv-x="796" 
d="M117 588h573v71q0 53 -6.5 102.5t-25.5 102.5t-48.5 91.5t-80 63.5t-115.5 25q-286 0 -297 -456zM731 551h-614q0 -124 14.5 -218t47.5 -168.5t92 -113.5t143 -39q57 0 103.5 22.5t75.5 57.5t49 80.5t29 88t11 83.5h41q-8 -159 -92.5 -264t-216.5 -105q-177 0 -257.5 144
t-80.5 440q0 251 83 386.5t255 135.5q71 0 126.5 -24.5t91 -66.5t58 -101.5t32 -124t9.5 -139.5v-74zM524 1247v211h41v-211h-41zM266 1247v211h41v-211h-41z" />
    <glyph glyph-name="igrave" unicode="&#xec;" 
d="M113 0v1057h41v-1057h-41zM115 1210l-170 285h41l170 -285h-41z" />
    <glyph glyph-name="iacute" unicode="&#xed;" 
d="M113 0v1057h41v-1057h-41zM109 1210l170 285h40l-169 -285h-41z" />
    <glyph glyph-name="icircumflex" unicode="&#xee;" 
d="M113 0v1057h41v-1057h-41zM-74 1210l180 285h58l180 -285h-41l-168 256l-168 -256h-41z" />
    <glyph glyph-name="idieresis" unicode="&#xef;" 
d="M113 0v1057h41v-1057h-41zM242 1247v211h41v-211h-41zM-16 1247v211h41v-211h-41z" />
    <glyph glyph-name="eth" unicode="&#xf0;" horiz-adv-x="833" 
d="M270 1243l-26 31l147 98q-59 57 -139 107l39 26q84 -60 137 -108l143 96l29 -31l-141 -94q163 -163 231 -370t68 -470q0 -157 -26 -268t-74 -171.5t-106.5 -87t-133.5 -26.5q-174 0 -258 143t-84 410t84 410t258 143q66 0 119 -19.5t104 -70.5l4 4q-69 200 -223 348z
M117 528q0 -516 301 -516q157 0 228 126.5t71 389.5q0 265 -68 390.5t-231 125.5q-301 0 -301 -516z" />
    <glyph glyph-name="ntilde" unicode="&#xf1;" horiz-adv-x="796" 
d="M104 0v1057h41v-191h5q13 78 89.5 146.5t180.5 68.5q272 0 272 -321v-760h-41v756q0 68 -12.5 119.5t-33 83t-50.5 51t-62.5 27t-72.5 7.5q-31 0 -64 -9t-72 -35t-69 -65.5t-50 -107t-20 -153.5v-674h-41zM205 1274h-41q6 57 35.5 105t85.5 48q32 0 62 -18t49.5 -40
t46 -40t51.5 -18q71 0 84 121h40q-4 -23 -7.5 -39.5t-13 -41t-22 -39.5t-33.5 -26.5t-48 -11.5q-28 0 -60.5 18.5t-56.5 40t-50.5 40t-43.5 18.5q-53 0 -78 -117z" />
    <glyph glyph-name="ograve" unicode="&#xf2;" horiz-adv-x="833" 
d="M117 528q0 -516 301 -516q157 0 228 126.5t71 389.5t-71 389.5t-228 126.5q-301 0 -301 -516zM418 -25q-174 0 -258 143t-84 410q0 553 342 553q75 0 133.5 -26.5t106.5 -87t74 -171.5t26 -268t-26 -268t-74 -171.5t-106.5 -87t-133.5 -26.5zM420 1210l-170 285h41
l170 -285h-41z" />
    <glyph glyph-name="oacute" unicode="&#xf3;" horiz-adv-x="833" 
d="M117 528q0 -516 301 -516q157 0 228 126.5t71 389.5t-71 389.5t-228 126.5q-301 0 -301 -516zM418 -25q-174 0 -258 143t-84 410q0 553 342 553q75 0 133.5 -26.5t106.5 -87t74 -171.5t26 -268t-26 -268t-74 -171.5t-106.5 -87t-133.5 -26.5zM391 1210l170 285h41
l-170 -285h-41z" />
    <glyph glyph-name="ocircumflex" unicode="&#xf4;" horiz-adv-x="833" 
d="M117 528q0 -516 301 -516q157 0 228 126.5t71 389.5t-71 389.5t-228 126.5q-301 0 -301 -516zM418 -25q-174 0 -258 143t-84 410q0 553 342 553q75 0 133.5 -26.5t106.5 -87t74 -171.5t26 -268t-26 -268t-74 -171.5t-106.5 -87t-133.5 -26.5zM207 1210l180 285h57
l181 -285h-41l-168 256l-168 -256h-41z" />
    <glyph glyph-name="otilde" unicode="&#xf5;" horiz-adv-x="833" 
d="M117 528q0 -516 301 -516q157 0 228 126.5t71 389.5t-71 389.5t-228 126.5q-301 0 -301 -516zM418 -25q-174 0 -258 143t-84 410q0 553 342 553q75 0 133.5 -26.5t106.5 -87t74 -171.5t26 -268t-26 -268t-74 -171.5t-106.5 -87t-133.5 -26.5zM227 1274h-41q6 57 35.5 105
t85.5 48q32 0 62 -18t49.5 -40t46 -40t51.5 -18q71 0 84 121h41q-5 -30 -11 -51t-19.5 -49t-37.5 -43t-57 -15q-28 0 -60.5 18.5t-56.5 40t-50.5 40t-43.5 18.5q-53 0 -78 -117z" />
    <glyph glyph-name="odieresis" unicode="&#xf6;" horiz-adv-x="833" 
d="M117 528q0 -516 301 -516q157 0 228 126.5t71 389.5t-71 389.5t-228 126.5q-301 0 -301 -516zM418 -25q-174 0 -258 143t-84 410q0 553 342 553q75 0 133.5 -26.5t106.5 -87t74 -171.5t26 -268t-26 -268t-74 -171.5t-106.5 -87t-133.5 -26.5zM522 1247v211h41v-211h-41z
M264 1247v211h41v-211h-41z" />
    <glyph glyph-name="divide" unicode="&#xf7;" horiz-adv-x="1228" 
d="M539 76q0 31 22 53.5t53 22.5t53.5 -22.5t22.5 -53.5t-22.5 -53.5t-53.5 -22.5t-53 22.5t-22 53.5zM539 961q0 31 22 53t53 22t53.5 -22t22.5 -53t-22.5 -53.5t-53.5 -22.5t-53 22.5t-22 53.5zM1133 500h-1037v37h1037v-37z" />
    <glyph glyph-name="oslash" unicode="&#xf8;" horiz-adv-x="833" 
d="M150 -88l59 145q-133 127 -133 471q0 267 84 410t258 143q110 0 182 -55l53 133l35 -14l-59 -146q129 -123 129 -471q0 -157 -26 -268t-74 -171.5t-106.5 -87t-133.5 -26.5q-108 0 -180 60l-56 -137zM614 963l-362 -891q66 -60 166 -60q157 0 228 126.5t71 389.5
q0 317 -103 435zM225 98l361 891q-70 55 -168 55q-301 0 -301 -516q0 -309 108 -430z" />
    <glyph glyph-name="ugrave" unicode="&#xf9;" horiz-adv-x="796" 
d="M692 1057v-1057h-41v190h-4q-13 -78 -89.5 -146.5t-180.5 -68.5q-273 0 -273 322v760h41v-756q0 -85 18 -144t52 -89.5t72.5 -43t89.5 -12.5q30 0 62.5 9t71.5 35t69 65.5t50.5 107.5t20.5 154v674h41zM406 1210l-170 285h40l170 -285h-40z" />
    <glyph glyph-name="uacute" unicode="&#xfa;" horiz-adv-x="796" 
d="M692 1057v-1057h-41v190h-4q-13 -78 -89.5 -146.5t-180.5 -68.5q-273 0 -273 322v760h41v-756q0 -85 18 -144t52 -89.5t72.5 -43t89.5 -12.5q30 0 62.5 9t71.5 35t69 65.5t50.5 107.5t20.5 154v674h41zM371 1210l170 285h41l-170 -285h-41z" />
    <glyph glyph-name="ucircumflex" unicode="&#xfb;" horiz-adv-x="796" 
d="M692 1057v-1057h-41v190h-4q-13 -78 -89.5 -146.5t-180.5 -68.5q-273 0 -273 322v760h41v-756q0 -85 18 -144t52 -89.5t72.5 -43t89.5 -12.5q30 0 62.5 9t71.5 35t69 65.5t50.5 107.5t20.5 154v674h41zM188 1210l181 285h57l180 -285h-41l-168 256l-168 -256h-41z" />
    <glyph glyph-name="udieresis" unicode="&#xfc;" horiz-adv-x="796" 
d="M692 1057v-1057h-41v190h-4q-13 -78 -89.5 -146.5t-180.5 -68.5q-273 0 -273 322v760h41v-756q0 -85 18 -144t52 -89.5t72.5 -43t89.5 -12.5q30 0 62.5 9t71.5 35t69 65.5t50.5 107.5t20.5 154v674h41zM506 1247v211h41v-211h-41zM248 1247v211h41v-211h-41z" />
    <glyph glyph-name="yacute" unicode="&#xfd;" horiz-adv-x="645" 
d="M313 -8l-309 1065h41l287 -1006l-2 2h4l268 1004h39l-299 -1100q-50 -191 -100 -254t-156 -63q-27 0 -55 4v37q40 -5 61 -5q70 0 115 39q52 52 106 277zM309 1210l170 285h41l-170 -285h-41z" />
    <glyph glyph-name="thorn" unicode="&#xfe;" horiz-adv-x="833" 
d="M145 528q0 -258 76 -387t209 -129q287 0 287 498q0 534 -295 534q-128 0 -202.5 -130.5t-74.5 -385.5zM104 -360v1822h41v-633h7q67 252 274 252q158 0 245 -139t87 -424q0 -543 -328 -543q-109 0 -178 67t-100 171h-7v-573h-41z" />
    <glyph glyph-name="ydieresis" unicode="&#xff;" horiz-adv-x="645" 
d="M313 -8l-309 1065h41l287 -1006l-2 2h4l268 1004h39l-299 -1100q-50 -191 -100 -254t-156 -63q-27 0 -55 4v37q40 -5 61 -5q70 0 115 39q52 52 106 277zM440 1247v211h41v-211h-41zM182 1247v211h41v-211h-41z" />
    <glyph glyph-name="Amacron" unicode="&#x100;" horiz-adv-x="985" 
d="M780 512l-284 913h-4l-285 -913h573zM4 0l465 1462h49l463 -1462h-41l-149 475h-596l-150 -475h-41zM295 1726h393v-36h-393v36z" />
    <glyph glyph-name="amacron" unicode="&#x101;" horiz-adv-x="757" 
d="M608 387v240q-25 -29 -84 -50t-192 -47q-125 -24 -178.5 -85.5t-53.5 -172.5q0 -129 65 -194.5t169 -65.5q44 0 89.5 20.5t88 61.5t69.5 117.5t27 175.5zM59 276q0 233 252 283q161 31 215 53q45 14 63.5 52t18.5 127q0 69 -9 106t-32 68q-27 36 -74.5 57.5t-103.5 21.5
q-51 0 -91 -12t-65.5 -29t-44 -44.5t-27.5 -50t-14 -54.5t-5.5 -48.5t-0.5 -41.5h-41v35q0 116 73 199t216 83q112 0 186 -65t74 -189v-694q0 -100 62 -96q13 0 41 4v-37q-20 -4 -29 -4h-21q-47 0 -70.5 28t-23.5 109v41h-4q-36 -95 -107.5 -149t-168.5 -54
q-128 0 -198.5 80t-70.5 221zM195 1370h393v-37h-393v37z" />
    <glyph glyph-name="Abreve" unicode="&#x102;" horiz-adv-x="985" 
d="M780 512l-284 913h-4l-285 -913h573zM4 0l465 1462h49l463 -1462h-41l-149 475h-596l-150 -475h-41zM274 1823h41q23 -191 177 -191q44 0 79 19t55.5 49t32 61.5t13.5 61.5h41q-11 -103 -67.5 -165.5t-156.5 -62.5q-93 0 -152 62t-63 166z" />
    <glyph glyph-name="abreve" unicode="&#x103;" horiz-adv-x="757" 
d="M608 387v240q-25 -29 -84 -50t-192 -47q-125 -24 -178.5 -85.5t-53.5 -172.5q0 -129 65 -194.5t169 -65.5q44 0 89.5 20.5t88 61.5t69.5 117.5t27 175.5zM59 276q0 233 252 283q161 31 215 53q45 14 63.5 52t18.5 127q0 69 -9 106t-32 68q-27 36 -74.5 57.5t-103.5 21.5
q-51 0 -91 -12t-65.5 -29t-44 -44.5t-27.5 -50t-14 -54.5t-5.5 -48.5t-0.5 -41.5h-41v35q0 116 73 199t216 83q112 0 186 -65t74 -189v-694q0 -100 62 -96q13 0 41 4v-37q-20 -4 -29 -4h-21q-47 0 -70.5 28t-23.5 109v41h-4q-36 -95 -107.5 -149t-168.5 -54
q-128 0 -198.5 80t-70.5 221zM168 1466h41q11 -92 52.5 -141t123.5 -49q44 0 79 19t55.5 49t32 61t13.5 61h41q-11 -103 -67 -165t-156 -62q-93 0 -152 61.5t-63 165.5z" />
    <glyph glyph-name="Aogonek" unicode="&#x104;" horiz-adv-x="985" 
d="M4 0l465 1462h49l463 -1462q-101 -79 -144.5 -135t-43.5 -109q0 -47 32 -74.5t84 -27.5q60 0 121 43l23 -31q-62 -49 -144 -49q-74 0 -116.5 36t-42.5 99q0 65 46 124.5t144 123.5l-149 475h-596l-150 -475h-41zM780 512l-284 913h-4l-285 -913h573z" />
    <glyph glyph-name="aogonek" unicode="&#x105;" horiz-adv-x="757" 
d="M59 276q0 233 252 283q161 31 215 53q45 14 63.5 52t18.5 127q0 69 -9 106t-32 68q-27 36 -74.5 57.5t-103.5 21.5q-51 0 -91 -12t-65.5 -29t-44 -44.5t-27.5 -50t-14 -54.5t-5.5 -48.5t-0.5 -41.5h-41v35q0 116 73 199t216 83q112 0 186 -65t74 -189v-694q0 -100 62 -96
q13 0 41 4v-37q-20 -4 -29 -4h-21h-16q-105 -78 -149.5 -134t-44.5 -110q0 -47 32 -74.5t84 -27.5q60 0 121 43l23 -31q-62 -49 -144 -49q-74 0 -116.5 36t-42.5 99q0 65 47 127q52 66 155 131q-8 3 -16 15q-27 30 -27 112v41h-4q-36 -95 -107.5 -149t-168.5 -54
q-128 0 -198.5 80t-70.5 221zM608 387v240q-25 -29 -84 -50t-192 -47q-125 -24 -178.5 -85.5t-53.5 -172.5q0 -129 65 -194.5t169 -65.5q44 0 89.5 20.5t88 61.5t69.5 117.5t27 175.5z" />
    <glyph glyph-name="Cacute" unicode="&#x106;" horiz-adv-x="1024" 
d="M934 485h41q-9 -79 -26.5 -148t-51 -137.5t-79.5 -116.5t-116 -78t-157 -30q-92 0 -166.5 30.5t-124.5 86t-85.5 125.5t-54.5 158.5t-27.5 174t-8.5 181.5t8.5 181.5t27.5 174t54.5 158.5t85.5 125.5t124.5 86t166.5 30.5q75 0 137 -20t104.5 -55.5t74.5 -79t50.5 -95
t28 -98.5t12.5 -95h-41q-5 115 -44.5 204.5t-121.5 145.5t-198 56q-98 0 -174 -40t-123 -106t-77.5 -160.5t-42 -194.5t-11.5 -218t11.5 -218t42 -194.5t77.5 -160.5t123 -106t174 -40q87 0 155.5 35.5t108 85.5t67.5 120t39 122.5t17 109.5zM506 1567l170 284h41l-170 -284
h-41z" />
    <glyph glyph-name="cacute" unicode="&#x107;" horiz-adv-x="757" 
d="M713 764h-41q-5 115 -73 197.5t-185 82.5q-67 0 -118.5 -25t-93 -82.5t-63.5 -160.5t-22 -248q0 -516 297 -516q57 0 103.5 22.5t75.5 57.5t49 80.5t29 88t11 83.5h41q-8 -159 -92.5 -264t-216.5 -105q-177 0 -257.5 144t-80.5 440q0 251 83 386.5t255 135.5
q131 0 215 -94.5t84 -222.5zM391 1210l170 285h41l-170 -285h-41z" />
    <glyph glyph-name="Ccircumflex" unicode="&#x108;" horiz-adv-x="1024" 
d="M934 485h41q-9 -79 -26.5 -148t-51 -137.5t-79.5 -116.5t-116 -78t-157 -30q-92 0 -166.5 30.5t-124.5 86t-85.5 125.5t-54.5 158.5t-27.5 174t-8.5 181.5t8.5 181.5t27.5 174t54.5 158.5t85.5 125.5t124.5 86t166.5 30.5q75 0 137 -20t104.5 -55.5t74.5 -79t50.5 -95
t28 -98.5t12.5 -95h-41q-5 115 -44.5 204.5t-121.5 145.5t-198 56q-98 0 -174 -40t-123 -106t-77.5 -160.5t-42 -194.5t-11.5 -218t11.5 -218t42 -194.5t77.5 -160.5t123 -106t174 -40q87 0 155.5 35.5t108 85.5t67.5 120t39 122.5t17 109.5zM338 1567l180 284h57l181 -284
h-41l-168 256l-168 -256h-41z" />
    <glyph glyph-name="ccircumflex" unicode="&#x109;" horiz-adv-x="757" 
d="M713 764h-41q-5 115 -73 197.5t-185 82.5q-67 0 -118.5 -25t-93 -82.5t-63.5 -160.5t-22 -248q0 -516 297 -516q57 0 103.5 22.5t75.5 57.5t49 80.5t29 88t11 83.5h41q-8 -159 -92.5 -264t-216.5 -105q-177 0 -257.5 144t-80.5 440q0 251 83 386.5t255 135.5
q131 0 215 -94.5t84 -222.5zM203 1210l180 285h57l181 -285h-41l-168 256l-168 -256h-41z" />
    <glyph glyph-name="Cdotaccent" unicode="&#x10a;" horiz-adv-x="1024" 
d="M934 485h41q-9 -79 -26.5 -148t-51 -137.5t-79.5 -116.5t-116 -78t-157 -30q-92 0 -166.5 30.5t-124.5 86t-85.5 125.5t-54.5 158.5t-27.5 174t-8.5 181.5t8.5 181.5t27.5 174t54.5 158.5t85.5 125.5t124.5 86t166.5 30.5q75 0 137 -20t104.5 -55.5t74.5 -79t50.5 -95
t28 -98.5t12.5 -95h-41q-5 115 -44.5 204.5t-121.5 145.5t-198 56q-98 0 -174 -40t-123 -106t-77.5 -160.5t-42 -194.5t-11.5 -218t11.5 -218t42 -194.5t77.5 -160.5t123 -106t174 -40q87 0 155.5 35.5t108 85.5t67.5 120t39 122.5t17 109.5zM522 1604v211h41v-211h-41z" />
    <glyph glyph-name="cdotaccent" unicode="&#x10b;" horiz-adv-x="757" 
d="M713 764h-41q-5 115 -73 197.5t-185 82.5q-67 0 -118.5 -25t-93 -82.5t-63.5 -160.5t-22 -248q0 -516 297 -516q57 0 103.5 22.5t75.5 57.5t49 80.5t29 88t11 83.5h41q-8 -159 -92.5 -264t-216.5 -105q-177 0 -257.5 144t-80.5 440q0 251 83 386.5t255 135.5
q131 0 215 -94.5t84 -222.5zM391 1247v211h41v-211h-41z" />
    <glyph glyph-name="Ccaron" unicode="&#x10c;" horiz-adv-x="1024" 
d="M934 485h41q-9 -79 -26.5 -148t-51 -137.5t-79.5 -116.5t-116 -78t-157 -30q-92 0 -166.5 30.5t-124.5 86t-85.5 125.5t-54.5 158.5t-27.5 174t-8.5 181.5t8.5 181.5t27.5 174t54.5 158.5t85.5 125.5t124.5 86t166.5 30.5q75 0 137 -20t104.5 -55.5t74.5 -79t50.5 -95
t28 -98.5t12.5 -95h-41q-5 115 -44.5 204.5t-121.5 145.5t-198 56q-98 0 -174 -40t-123 -106t-77.5 -160.5t-42 -194.5t-11.5 -218t11.5 -218t42 -194.5t77.5 -160.5t123 -106t174 -40q87 0 155.5 35.5t108 85.5t67.5 120t39 122.5t17 109.5zM514 1567l-180 284h41l168 -256
l168 256h41l-181 -284h-57z" />
    <glyph glyph-name="ccaron" unicode="&#x10d;" horiz-adv-x="757" 
d="M713 764h-41q-5 115 -73 197.5t-185 82.5q-67 0 -118.5 -25t-93 -82.5t-63.5 -160.5t-22 -248q0 -516 297 -516q57 0 103.5 22.5t75.5 57.5t49 80.5t29 88t11 83.5h41q-8 -159 -92.5 -264t-216.5 -105q-177 0 -257.5 144t-80.5 440q0 251 83 386.5t255 135.5
q131 0 215 -94.5t84 -222.5zM379 1210l-180 285h41l168 -256l167 256h41l-180 -285h-57z" />
    <glyph glyph-name="Dcaron" unicode="&#x10e;" horiz-adv-x="1024" 
d="M160 1425v-1388h272q242 0 357.5 182t115.5 537q0 170 -22.5 291t-74.5 207.5t-139.5 128.5t-213.5 42h-295zM119 0v1462h352q112 0 197 -37t137 -99t84.5 -154.5t44.5 -192t12 -223.5q0 -176 -27 -309t-73.5 -217t-116 -136.5t-146.5 -73t-173 -20.5h-291zM412 1567
l-181 284h41l168 -256l168 256h41l-180 -284h-57z" />
    <glyph glyph-name="dcaron" unicode="&#x10f;" horiz-adv-x="927" 
d="M688 528q0 258 -76 387t-209 129q-286 0 -286 -497q0 -535 295 -535q127 0 201.5 130.5t74.5 385.5zM688 0v227h-6q-67 -252 -274 -252q-157 0 -244.5 139.5t-87.5 424.5q0 122 16.5 216.5t53 170t101.5 115.5t156 40q46 0 86 -13.5t68.5 -35t53 -53.5t40.5 -63.5
t31 -71.5h6v618h41v-1462h-41zM825 1178l58 284h45l-70 -284h-33z" />
    <glyph glyph-name="Dcroat" unicode="&#x110;" horiz-adv-x="1024" 
d="M160 745v-708h272q242 0 357.5 182t115.5 537q0 170 -22.5 291t-74.5 207.5t-139.5 128.5t-213.5 42h-295v-643h364v-37h-364zM119 0v745h-119v37h119v680h352q112 0 197 -37t137 -99t84.5 -154.5t44.5 -192t12 -223.5q0 -176 -27 -309t-73.5 -217t-116 -136.5
t-146.5 -73t-173 -20.5h-291z" />
    <glyph glyph-name="dcroat" unicode="&#x111;" horiz-adv-x="872" 
d="M688 0v227h-6q-67 -252 -274 -252q-157 0 -244.5 139.5t-87.5 424.5q0 122 16.5 216.5t53 170t101.5 115.5t156 40q46 0 86 -13.5t68.5 -35t53 -53.5t40.5 -63.5t31 -71.5h6v416h-270v36h270v166h41v-166h143v-36h-143v-1260h-41zM688 528q0 258 -76 387t-209 129
q-286 0 -286 -497q0 -535 295 -535q127 0 201.5 130.5t74.5 385.5z" />
    <glyph glyph-name="Emacron" unicode="&#x112;" horiz-adv-x="833" 
d="M119 0v1462h665v-37h-624v-643h579v-37h-579v-708h641v-37h-682zM248 1726h393v-36h-393v36z" />
    <glyph glyph-name="emacron" unicode="&#x113;" horiz-adv-x="796" 
d="M117 588h573v71q0 53 -6.5 102.5t-25.5 102.5t-48.5 91.5t-80 63.5t-115.5 25q-286 0 -297 -456zM731 551h-614q0 -124 14.5 -218t47.5 -168.5t92 -113.5t143 -39q57 0 103.5 22.5t75.5 57.5t49 80.5t29 88t11 83.5h41q-8 -159 -92.5 -264t-216.5 -105q-177 0 -257.5 144
t-80.5 440q0 251 83 386.5t255 135.5q71 0 126.5 -24.5t91 -66.5t58 -101.5t32 -124t9.5 -139.5v-74zM221 1370h393v-37h-393v37z" />
    <glyph glyph-name="Ebreve" unicode="&#x114;" horiz-adv-x="833" 
d="M119 0v1462h665v-37h-624v-643h579v-37h-579v-708h641v-37h-682zM223 1823h41q11 -92 52.5 -141.5t123.5 -49.5q44 0 79 19t56 49t32.5 61.5t13.5 61.5h41q-11 -103 -67.5 -165.5t-156.5 -62.5q-93 0 -152 62t-63 166z" />
    <glyph glyph-name="ebreve" unicode="&#x115;" horiz-adv-x="796" 
d="M117 588h573v71q0 53 -6.5 102.5t-25.5 102.5t-48.5 91.5t-80 63.5t-115.5 25q-286 0 -297 -456zM731 551h-614q0 -124 14.5 -218t47.5 -168.5t92 -113.5t143 -39q57 0 103.5 22.5t75.5 57.5t49 80.5t29 88t11 83.5h41q-8 -159 -92.5 -264t-216.5 -105q-177 0 -257.5 144
t-80.5 440q0 251 83 386.5t255 135.5q71 0 126.5 -24.5t91 -66.5t58 -101.5t32 -124t9.5 -139.5v-74zM199 1466h41q11 -92 52.5 -141t123.5 -49q44 0 79 19t55.5 49t32 61t13.5 61h41q-11 -103 -67 -165t-156 -62q-93 0 -152 61.5t-63 165.5z" />
    <glyph glyph-name="Edotaccent" unicode="&#x116;" horiz-adv-x="833" 
d="M119 0v1462h665v-37h-624v-643h579v-37h-579v-708h641v-37h-682zM426 1604v211h41v-211h-41z" />
    <glyph glyph-name="edotaccent" unicode="&#x117;" horiz-adv-x="796" 
d="M117 588h573v71q0 53 -6.5 102.5t-25.5 102.5t-48.5 91.5t-80 63.5t-115.5 25q-286 0 -297 -456zM731 551h-614q0 -124 14.5 -218t47.5 -168.5t92 -113.5t143 -39q57 0 103.5 22.5t75.5 57.5t49 80.5t29 88t11 83.5h41q-8 -159 -92.5 -264t-216.5 -105q-177 0 -257.5 144
t-80.5 440q0 251 83 386.5t255 135.5q71 0 126.5 -24.5t91 -66.5t58 -101.5t32 -124t9.5 -139.5v-74zM391 1247v211h41v-211h-41z" />
    <glyph glyph-name="Eogonek" unicode="&#x118;" horiz-adv-x="833" 
d="M778 -303l23 -31q-62 -49 -144 -49q-74 0 -116.5 36t-42.5 99q0 132 190 248h-569v1462h665v-37h-624v-643h579v-37h-579v-708h641v-37h-66q-194 -139 -194 -244q0 -47 32 -74.5t84 -27.5q60 0 121 43z" />
    <glyph glyph-name="eogonek" unicode="&#x119;" horiz-adv-x="796" 
d="M528 -303l23 -31q-62 -49 -143 -49q-74 0 -117 36t-43 99q0 67 45 127q39 52 106 96q-167 6 -245 146q-78 150 -78 438q0 251 83 386.5t255 135.5q71 0 126.5 -24.5t91 -66.5t58 -101.5t32 -124t9.5 -139.5v-74h-614q0 -124 14.5 -218t47.5 -168.5t92 -113.5t143 -39
q57 0 103.5 22.5t75.5 57.5t49 80.5t29 88t11 83.5h41q-6 -118 -55 -207.5t-131 -132.5q-41 -18 -82 -24q-78 -61 -113 -107q-51 -63 -51 -117q0 -47 32.5 -74.5t84.5 -27.5q59 0 120 43zM117 588h573v71q0 53 -6.5 102.5t-25.5 102.5t-48.5 91.5t-80 63.5t-115.5 25
q-286 0 -297 -456z" />
    <glyph glyph-name="Ecaron" unicode="&#x11a;" horiz-adv-x="833" 
d="M119 0v1462h665v-37h-624v-643h579v-37h-579v-708h641v-37h-682zM424 1567l-180 284h41l168 -256l168 256h41l-181 -284h-57z" />
    <glyph glyph-name="ecaron" unicode="&#x11b;" horiz-adv-x="796" 
d="M117 588h573v71q0 53 -6.5 102.5t-25.5 102.5t-48.5 91.5t-80 63.5t-115.5 25q-286 0 -297 -456zM731 551h-614q0 -124 14.5 -218t47.5 -168.5t92 -113.5t143 -39q57 0 103.5 22.5t75.5 57.5t49 80.5t29 88t11 83.5h41q-8 -159 -92.5 -264t-216.5 -105q-177 0 -257.5 144
t-80.5 440q0 251 83 386.5t255 135.5q71 0 126.5 -24.5t91 -66.5t58 -101.5t32 -124t9.5 -139.5v-74zM385 1210l-180 285h41l168 -256l168 256h41l-181 -285h-57z" />
    <glyph glyph-name="Gcircumflex" unicode="&#x11c;" horiz-adv-x="1062" 
d="M934 0v317h-4q-17 -69 -48 -129t-77.5 -108.5t-113.5 -76.5t-146 -28q-92 0 -166.5 30.5t-124.5 86t-85.5 125.5t-54.5 158.5t-27.5 174t-8.5 181.5t8.5 181.5t27.5 174t54.5 158.5t85.5 125.5t124.5 86t166.5 30.5q75 0 137 -20t104.5 -55.5t74.5 -79t50.5 -95t28 -98.5
t12.5 -95h-41q-8 182 -100 294t-264 112q-98 0 -174 -40t-123 -106t-77.5 -160.5t-42 -194.5t-11.5 -218t11.5 -218t42 -194.5t77.5 -160.5t123 -106t174 -40q51 0 99.5 14.5t101 54.5t91.5 102t65.5 166t29.5 237v86h-455v37h496v-709h-41zM336 1567l180 284h57l181 -284
h-41l-168 256l-168 -256h-41z" />
    <glyph glyph-name="gcircumflex" unicode="&#x11d;" horiz-adv-x="833" 
d="M674 561q0 483 -279 483q-144 0 -211 -124t-67 -365q0 -518 270 -518q65 0 114 24t89.5 81t62 162.5t21.5 256.5zM674 -4v246h-4q-23 -117 -96 -179.5t-189 -62.5q-144 0 -226.5 131t-82.5 414q0 536 323 536q65 0 117 -23t82.5 -59.5t47.5 -72t24 -70.5h4v201h41v-1063
q0 -79 -15.5 -142.5t-49.5 -116.5t-96 -82.5t-148 -29.5q-38 0 -72.5 6t-72.5 24t-66 46t-47.5 76.5t-22.5 111.5h41q6 -110 68 -168.5t172 -58.5q130 0 199 79.5t69 256.5zM223 1210l180 285h58l180 -285h-41l-168 256l-168 -256h-41z" />
    <glyph glyph-name="Gbreve" unicode="&#x11e;" horiz-adv-x="1062" 
d="M934 0v317h-4q-17 -69 -48 -129t-77.5 -108.5t-113.5 -76.5t-146 -28q-92 0 -166.5 30.5t-124.5 86t-85.5 125.5t-54.5 158.5t-27.5 174t-8.5 181.5t8.5 181.5t27.5 174t54.5 158.5t85.5 125.5t124.5 86t166.5 30.5q75 0 137 -20t104.5 -55.5t74.5 -79t50.5 -95t28 -98.5
t12.5 -95h-41q-8 182 -100 294t-264 112q-98 0 -174 -40t-123 -106t-77.5 -160.5t-42 -194.5t-11.5 -218t11.5 -218t42 -194.5t77.5 -160.5t123 -106t174 -40q51 0 99.5 14.5t101 54.5t91.5 102t65.5 166t29.5 237v86h-455v37h496v-709h-41zM324 1823h41q11 -92 52.5 -141.5
t123.5 -49.5q44 0 79 19t55.5 49t32 61.5t13.5 61.5h41q-11 -103 -67 -165.5t-156 -62.5q-93 0 -152 62t-63 166z" />
    <glyph glyph-name="gbreve" unicode="&#x11f;" horiz-adv-x="833" 
d="M674 561q0 483 -279 483q-144 0 -211 -124t-67 -365q0 -518 270 -518q65 0 114 24t89.5 81t62 162.5t21.5 256.5zM674 -4v246h-4q-23 -117 -96 -179.5t-189 -62.5q-144 0 -226.5 131t-82.5 414q0 536 323 536q65 0 117 -23t82.5 -59.5t47.5 -72t24 -70.5h4v201h41v-1063
q0 -79 -15.5 -142.5t-49.5 -116.5t-96 -82.5t-148 -29.5q-38 0 -72.5 6t-72.5 24t-66 46t-47.5 76.5t-22.5 111.5h41q6 -110 68 -168.5t172 -58.5q130 0 199 79.5t69 256.5zM213 1466h41q11 -92 52.5 -141t123.5 -49q44 0 79 19t55.5 49t32 61t13.5 61h41q-11 -103 -67 -165
t-156 -62q-93 0 -152 61.5t-63 165.5z" />
    <glyph glyph-name="Gdotaccent" unicode="&#x120;" horiz-adv-x="1062" 
d="M934 0v317h-4q-17 -69 -48 -129t-77.5 -108.5t-113.5 -76.5t-146 -28q-92 0 -166.5 30.5t-124.5 86t-85.5 125.5t-54.5 158.5t-27.5 174t-8.5 181.5t8.5 181.5t27.5 174t54.5 158.5t85.5 125.5t124.5 86t166.5 30.5q75 0 137 -20t104.5 -55.5t74.5 -79t50.5 -95t28 -98.5
t12.5 -95h-41q-8 182 -100 294t-264 112q-98 0 -174 -40t-123 -106t-77.5 -160.5t-42 -194.5t-11.5 -218t11.5 -218t42 -194.5t77.5 -160.5t123 -106t174 -40q51 0 99.5 14.5t101 54.5t91.5 102t65.5 166t29.5 237v86h-455v37h496v-709h-41zM524 1604v211h41v-211h-41z" />
    <glyph glyph-name="gdotaccent" unicode="&#x121;" horiz-adv-x="833" 
d="M674 561q0 483 -279 483q-144 0 -211 -124t-67 -365q0 -518 270 -518q65 0 114 24t89.5 81t62 162.5t21.5 256.5zM674 -4v246h-4q-23 -117 -96 -179.5t-189 -62.5q-144 0 -226.5 131t-82.5 414q0 536 323 536q65 0 117 -23t82.5 -59.5t47.5 -72t24 -70.5h4v201h41v-1063
q0 -79 -15.5 -142.5t-49.5 -116.5t-96 -82.5t-148 -29.5q-38 0 -72.5 6t-72.5 24t-66 46t-47.5 76.5t-22.5 111.5h41q6 -110 68 -168.5t172 -58.5q130 0 199 79.5t69 256.5zM395 1247v211h41v-211h-41z" />
    <glyph glyph-name="Gcommaaccent" unicode="&#x122;" horiz-adv-x="1062" 
d="M934 0v317h-4q-17 -69 -48 -129t-77.5 -108.5t-113.5 -76.5t-146 -28q-92 0 -166.5 30.5t-124.5 86t-85.5 125.5t-54.5 158.5t-27.5 174t-8.5 181.5t8.5 181.5t27.5 174t54.5 158.5t85.5 125.5t124.5 86t166.5 30.5q75 0 137 -20t104.5 -55.5t74.5 -79t50.5 -95t28 -98.5
t12.5 -95h-41q-8 182 -100 294t-264 112q-98 0 -174 -40t-123 -106t-77.5 -160.5t-42 -194.5t-11.5 -218t11.5 -218t42 -194.5t77.5 -160.5t123 -106t174 -40q51 0 99.5 14.5t101 54.5t91.5 102t65.5 166t29.5 237v86h-455v37h496v-709h-41zM524 -260v158h41v-162
q0 -52 -18.5 -78t-67.5 -35v37q29 9 37 24t8 56z" />
    <glyph glyph-name="gcommaaccent" unicode="&#x123;" horiz-adv-x="833" 
d="M674 561q0 483 -279 483q-144 0 -211 -124t-67 -365q0 -518 270 -518q65 0 114 24t89.5 81t62 162.5t21.5 256.5zM674 -4v246h-4q-23 -117 -96 -179.5t-189 -62.5q-144 0 -226.5 131t-82.5 414q0 536 323 536q65 0 117 -23t82.5 -59.5t47.5 -72t24 -70.5h4v201h41v-1063
q0 -79 -15.5 -142.5t-49.5 -116.5t-96 -82.5t-148 -29.5q-38 0 -72.5 6t-72.5 24t-66 46t-47.5 76.5t-22.5 111.5h41q6 -110 68 -168.5t172 -58.5q130 0 199 79.5t69 256.5zM418 2742v-157h-41v161q0 52 18.5 78t67.5 35v-37q-29 -9 -37 -24t-8 -56zM422 1462v-157h-41v161
q0 52 18.5 78t67.5 35v-37q-29 -9 -37 -24t-8 -56z" />
    <glyph glyph-name="Hcircumflex" unicode="&#x124;" horiz-adv-x="1024" 
d="M119 0v1462h41v-663h704v663h41v-1462h-41v762h-704v-762h-41zM303 1567l180 284h58l180 -284h-41l-168 256l-168 -256h-41z" />
    <glyph glyph-name="hcircumflex" unicode="&#x125;" horiz-adv-x="796" 
d="M104 0v1462h41v-596h5q13 78 89.5 146.5t180.5 68.5q272 0 272 -321v-760h-41v756q0 68 -12.5 119.5t-33 83t-50.5 51t-62.5 27t-72.5 7.5q-31 0 -64 -9t-72 -35t-69 -65.5t-50 -107t-20 -153.5v-674h-41zM188 1567l181 284h57l180 -284h-41l-168 256l-168 -256h-41z" />
    <glyph glyph-name="Hbar" unicode="&#x126;" horiz-adv-x="1024" 
d="M119 0v1462h41v-405h704v405h41v-1462h-41v762h-704v-762h-41zM160 799h704v221h-704v-221z" />
    <glyph glyph-name="hbar" unicode="&#x127;" horiz-adv-x="835" 
d="M143 1296v166h41v-166h250v-36h-250v-394h4q13 77 89.5 146t181.5 69q272 0 272 -321v-760h-41v756q0 68 -12.5 119.5t-33 83t-50.5 51t-62.5 27t-72.5 7.5q-31 0 -64 -9t-72 -35t-69 -65.5t-50 -107t-20 -153.5v-674h-41v1260h-143v36h143z" />
    <glyph glyph-name="Itilde" unicode="&#x128;" horiz-adv-x="303" 
d="M131 0v1462h41v-1462h-41zM-35 1630h-41q6 58 35.5 106t85.5 48q32 0 62 -18.5t49.5 -40t46 -40t51.5 -18.5q71 0 84 121h41q-5 -30 -11 -51t-19.5 -49t-37.5 -43t-57 -15q-28 0 -60.5 18.5t-56.5 40t-50.5 40t-43.5 18.5q-53 0 -78 -117z" />
    <glyph glyph-name="itilde" unicode="&#x129;" 
d="M113 0v1057h41v-1057h-41zM-53 1274h-41q6 57 35.5 105t85.5 48q32 0 62 -18t49.5 -40t46 -40t51.5 -18q39 0 57.5 31t25.5 90h41q-4 -23 -7.5 -39.5t-13 -41t-22 -39.5t-33.5 -26.5t-48 -11.5q-28 0 -60.5 18.5t-56.5 40t-50.5 40t-43.5 18.5q-53 0 -78 -117z" />
    <glyph glyph-name="Imacron" unicode="&#x12a;" horiz-adv-x="303" 
d="M131 0v1462h41v-1462h-41zM-43 1726h393v-36h-393v36z" />
    <glyph glyph-name="imacron" unicode="&#x12b;" 
d="M113 0v1057h41v-1057h-41zM-61 1370h393v-37h-393v37z" />
    <glyph glyph-name="Iogonek" unicode="&#x12e;" horiz-adv-x="303" 
d="M131 0v1462h41v-1462q-94 -78 -134 -134t-40 -110q0 -47 29 -74.5t77 -27.5q54 0 109 43l20 -31q-55 -49 -129 -49q-67 0 -105 36t-38 99q0 129 170 248z" />
    <glyph glyph-name="iogonek" unicode="&#x12f;" 
d="M113 0v1057h41v-1057q-94 -78 -134 -134t-40 -110q0 -47 29 -74.5t77 -27.5q54 0 109 43l20 -31q-55 -49 -129 -49q-67 0 -105 36t-38 99q0 132 170 248zM113 1262v200h41v-200h-41z" />
    <glyph glyph-name="Idotaccent" unicode="&#x130;" horiz-adv-x="303" 
d="M131 0v1462h41v-1462h-41zM131 1604v211h41v-211h-41z" />
    <glyph glyph-name="dotlessi" unicode="&#x131;" 
d="M113 0v1057h41v-1057h-41z" />
    <glyph glyph-name="Jcircumflex" unicode="&#x134;" horiz-adv-x="796" 
d="M637 324v1138h41v-1145q0 -174 -82.5 -258t-228.5 -84q-88 0 -153 29.5t-102 83t-54 118.5t-17 144v82h41v-92q0 -158 73 -243t210 -85q62 0 109 15t85 49.5t58 97t20 150.5zM440 1567l181 284h57l180 -284h-41l-168 256l-168 -256h-41z" />
    <glyph glyph-name="jcircumflex" unicode="&#x135;" 
d="M113 -154v1211h41v-1207q0 -117 -45 -163.5t-140 -46.5h-26q-21 0 -27 2v36q10 -2 31 -2h24q79 0 110.5 37t31.5 133zM-84 1210l180 285h58l180 -285h-41l-168 256l-168 -256h-41z" />
    <glyph glyph-name="Kcommaaccent" unicode="&#x136;" horiz-adv-x="909" 
d="M119 0v1462h41v-862h4l651 862h47l-469 -616l510 -846h-43l-491 815l-209 -276v-539h-41zM446 -260v158h41v-162q0 -52 -18.5 -78t-67.5 -35v37q29 9 37 24t8 56z" />
    <glyph glyph-name="kcommaaccent" unicode="&#x137;" horiz-adv-x="720" 
d="M104 0v1462h41v-997l500 592h53l-331 -391l391 -666h-47l-373 635l-193 -227v-408h-41zM377 -260v158h41v-162q0 -52 -18.5 -78t-67.5 -35v37q29 9 37 24t8 56z" />
    <glyph glyph-name="Lacute" unicode="&#x139;" horiz-adv-x="833" 
d="M119 0v1462h41v-1425h624v-37h-665zM119 1567l170 284h41l-170 -284h-41z" />
    <glyph glyph-name="lacute" unicode="&#x13a;" 
d="M113 0v1462h41v-1462h-41zM113 1567l170 284h41l-170 -284h-41z" />
    <glyph glyph-name="Lcommaaccent" unicode="&#x13b;" horiz-adv-x="833" 
d="M119 0v1462h41v-1425h624v-37h-665zM412 -260v158h41v-162q0 -52 -18.5 -78t-67.5 -35v37q29 9 37 24t8 56z" />
    <glyph glyph-name="lcommaaccent" unicode="&#x13c;" 
d="M113 0v1462h41v-1462h-41zM115 -260v158h41v-162q0 -52 -18.5 -78t-67.5 -35v37q29 9 37 24t8 56z" />
    <glyph glyph-name="Lcaron" unicode="&#x13d;" horiz-adv-x="833" 
d="M119 0v1462h41v-1425h624v-37h-665zM344 1178l57 284h45l-69 -284h-33z" />
    <glyph glyph-name="lcaron" unicode="&#x13e;" horiz-adv-x="352" 
d="M113 0v1462h41v-1462h-41zM250 1178l57 284h45l-69 -284h-33z" />
    <glyph glyph-name="Ldot" unicode="&#x13f;" horiz-adv-x="833" 
d="M119 0v1462h41v-1425h624v-37h-665zM403 846v211h41v-211h-41z" />
    <glyph glyph-name="ldot" unicode="&#x140;" horiz-adv-x="391" 
d="M113 0v1462h41v-1462h-41zM276 846v211h41v-211h-41z" />
    <glyph glyph-name="Lslash" unicode="&#x141;" horiz-adv-x="833" 
d="M119 0v655l-139 -108v51l139 109v755h41v-723l348 273v-51l-348 -273v-651h624v-37h-665z" />
    <glyph glyph-name="lslash" unicode="&#x142;" 
d="M113 0v698h-4l-93 -116v63l97 117v700h41v-651h4l92 117v-64l-96 -116v-748h-41z" />
    <glyph glyph-name="Nacute" unicode="&#x143;" horiz-adv-x="1024" 
d="M109 0v1462h67l694 -1396h4v1396h41v-1462h-59l-702 1425h-4v-1425h-41zM473 1567l170 284h41l-170 -284h-41z" />
    <glyph glyph-name="nacute" unicode="&#x144;" horiz-adv-x="796" 
d="M104 0v1057h41v-191h5q13 78 89.5 146.5t180.5 68.5q272 0 272 -321v-760h-41v756q0 68 -12.5 119.5t-33 83t-50.5 51t-62.5 27t-72.5 7.5q-31 0 -64 -9t-72 -35t-69 -65.5t-50 -107t-20 -153.5v-674h-41zM354 1210l170 285h41l-170 -285h-41z" />
    <glyph glyph-name="Ncommaaccent" unicode="&#x145;" horiz-adv-x="1024" 
d="M109 0v1462h67l694 -1396h4v1396h41v-1462h-59l-702 1425h-4v-1425h-41zM481 -260v158h41v-162q0 -52 -18.5 -78t-67.5 -35v37q29 9 37 24t8 56z" />
    <glyph glyph-name="ncommaaccent" unicode="&#x146;" horiz-adv-x="796" 
d="M104 0v1057h41v-191h5q13 78 89.5 146.5t180.5 68.5q272 0 272 -321v-760h-41v756q0 68 -12.5 119.5t-33 83t-50.5 51t-62.5 27t-72.5 7.5q-31 0 -64 -9t-72 -35t-69 -65.5t-50 -107t-20 -153.5v-674h-41zM375 -260v158h41v-162q0 -52 -18.5 -78t-67.5 -35v37q29 9 37 24
t8 56z" />
    <glyph glyph-name="Ncaron" unicode="&#x147;" horiz-adv-x="1024" 
d="M109 0v1462h67l694 -1396h4v1396h41v-1462h-59l-702 1425h-4v-1425h-41zM483 1567l-180 284h41l168 -256l168 256h41l-180 -284h-58z" />
    <glyph glyph-name="ncaron" unicode="&#x148;" horiz-adv-x="796" 
d="M104 0v1057h41v-191h5q13 78 89.5 146.5t180.5 68.5q272 0 272 -321v-760h-41v756q0 68 -12.5 119.5t-33 83t-50.5 51t-62.5 27t-72.5 7.5q-31 0 -64 -9t-72 -35t-69 -65.5t-50 -107t-20 -153.5v-674h-41zM373 1210l-180 285h40l168 -256l168 256h41l-180 -285h-57z" />
    <glyph glyph-name="Omacron" unicode="&#x14c;" horiz-adv-x="1099" 
d="M119 731q0 -118 11.5 -218t42 -194.5t77.5 -160.5t123 -106t174 -40q434 0 434 719t-434 719q-98 0 -174 -40t-123 -106t-77.5 -160.5t-42 -194.5t-11.5 -218zM1022 731q0 -62 -1 -103.5t-10 -128t-25 -147.5t-50.5 -137.5t-82 -124.5t-123.5 -81.5t-171 -33.5
q-93 0 -168.5 30.5t-127 86t-88.5 126t-57.5 158t-30 174t-9.5 181.5q0 116 12.5 218t45 203t83.5 173t134.5 117t191.5 45q75 0 138.5 -20t109 -52.5t82 -81.5t60 -98t41 -111t26 -112t13.5 -109.5t6 -94.5t1 -77zM350 1726h393v-36h-393v36z" />
    <glyph glyph-name="omacron" unicode="&#x14d;" horiz-adv-x="833" 
d="M117 528q0 -516 301 -516q157 0 228 126.5t71 389.5t-71 389.5t-228 126.5q-301 0 -301 -516zM418 -25q-174 0 -258 143t-84 410q0 553 342 553q75 0 133.5 -26.5t106.5 -87t74 -171.5t26 -268t-26 -268t-74 -171.5t-106.5 -87t-133.5 -26.5zM223 1370h393v-37h-393v37z
" />
    <glyph glyph-name="Obreve" unicode="&#x14e;" horiz-adv-x="1099" 
d="M119 731q0 -118 11.5 -218t42 -194.5t77.5 -160.5t123 -106t174 -40q434 0 434 719t-434 719q-98 0 -174 -40t-123 -106t-77.5 -160.5t-42 -194.5t-11.5 -218zM1022 731q0 -62 -1 -103.5t-10 -128t-25 -147.5t-50.5 -137.5t-82 -124.5t-123.5 -81.5t-171 -33.5
q-93 0 -168.5 30.5t-127 86t-88.5 126t-57.5 158t-30 174t-9.5 181.5q0 116 12.5 218t45 203t83.5 173t134.5 117t191.5 45q75 0 138.5 -20t109 -52.5t82 -81.5t60 -98t41 -111t26 -112t13.5 -109.5t6 -94.5t1 -77zM328 1823h41q11 -92 52.5 -141.5t123.5 -49.5q44 0 79 19
t55.5 49t32 61.5t13.5 61.5h41q-11 -103 -67 -165.5t-156 -62.5q-93 0 -152 62t-63 166z" />
    <glyph glyph-name="obreve" unicode="&#x14f;" horiz-adv-x="833" 
d="M117 528q0 -516 301 -516q157 0 228 126.5t71 389.5t-71 389.5t-228 126.5q-301 0 -301 -516zM418 -25q-174 0 -258 143t-84 410q0 553 342 553q75 0 133.5 -26.5t106.5 -87t74 -171.5t26 -268t-26 -268t-74 -171.5t-106.5 -87t-133.5 -26.5zM201 1466h41
q11 -92 52.5 -141t123.5 -49q44 0 79 19t55.5 49t32 61t13.5 61h41q-11 -103 -67 -165t-156 -62q-93 0 -152 61.5t-63 165.5z" />
    <glyph glyph-name="Ohungarumlaut" unicode="&#x150;" horiz-adv-x="1099" 
d="M119 731q0 -118 11.5 -218t42 -194.5t77.5 -160.5t123 -106t174 -40q434 0 434 719t-434 719q-98 0 -174 -40t-123 -106t-77.5 -160.5t-42 -194.5t-11.5 -218zM1022 731q0 -62 -1 -103.5t-10 -128t-25 -147.5t-50.5 -137.5t-82 -124.5t-123.5 -81.5t-171 -33.5
q-93 0 -168.5 30.5t-127 86t-88.5 126t-57.5 158t-30 174t-9.5 181.5q0 116 12.5 218t45 203t83.5 173t134.5 117t191.5 45q75 0 138.5 -20t109 -52.5t82 -81.5t60 -98t41 -111t26 -112t13.5 -109.5t6 -94.5t1 -77zM653 1567l170 284h41l-170 -284h-41zM389 1567l170 284h41
l-170 -284h-41z" />
    <glyph glyph-name="ohungarumlaut" unicode="&#x151;" horiz-adv-x="833" 
d="M117 528q0 -516 301 -516q157 0 228 126.5t71 389.5t-71 389.5t-228 126.5q-301 0 -301 -516zM418 -25q-174 0 -258 143t-84 410q0 553 342 553q75 0 133.5 -26.5t106.5 -87t74 -171.5t26 -268t-26 -268t-74 -171.5t-106.5 -87t-133.5 -26.5zM528 1210l170 285h41
l-170 -285h-41zM264 1210l170 285h41l-170 -285h-41z" />
    <glyph glyph-name="OE" unicode="&#x152;" horiz-adv-x="1554" 
d="M840 330v788q0 162 -65.5 247t-227.5 85q-98 0 -174 -40t-123 -106t-77.5 -160.5t-42 -194.5t-11.5 -218t11.5 -218t42 -194.5t77.5 -160.5t123 -106t174 -40q78 0 136.5 26.5t91.5 73t49 101t16 117.5zM840 1335v127h651v-37h-610v-643h567v-37h-567v-708h641v-37h-682
v133h-4q-82 -158 -291 -158q-92 0 -166.5 30.5t-124.5 86t-85.5 125.5t-54.5 158.5t-27.5 174t-8.5 181.5t8.5 181.5t27.5 174t54.5 158.5t85.5 125.5t124.5 86t166.5 30.5q98 0 177 -37.5t114 -114.5h4z" />
    <glyph glyph-name="oe" unicode="&#x153;" horiz-adv-x="1366" 
d="M1290 551h-561v-107q0 -84 13 -156.5t41 -137t79.5 -101.5t122.5 -37q68 0 118 32t77.5 87t41 114t15.5 126h41q-2 -77 -18 -143t-48.5 -125.5t-91 -93.5t-137.5 -34q-71 0 -126 32t-84.5 81.5t-44 95.5t-17.5 88h-4q-49 -297 -289 -297q-174 0 -258 143t-84 410t84 410
t258 143q63 0 114 -23.5t81 -56t51.5 -75.5t30 -74t12.5 -59h4q5 70 38 135t94.5 109t135.5 44q159 0 235 -130t76 -361v-39zM729 588h520q0 456 -270 456q-107 0 -178.5 -108t-71.5 -322v-26zM117 528q0 -516 301 -516q52 0 93.5 17t69.5 44.5t48 72.5t31.5 89.5
t17.5 107.5t8 115.5t2 123.5q0 462 -270 462q-301 0 -301 -516z" />
    <glyph glyph-name="Racute" unicode="&#x154;" horiz-adv-x="985" 
d="M119 0v1462h395q60 0 111 -10.5t99.5 -38t83 -69.5t55 -110t20.5 -155q0 -161 -77.5 -253.5t-215.5 -110.5v-4q69 -9 118 -30t80 -52.5t49 -81.5t25.5 -106t9.5 -136q5 -169 9.5 -212.5t25.5 -92.5h-41q-12 29 -17 48t-10 80.5t-8 180.5q-4 121 -21.5 193t-62.5 115.5
t-111 58t-179 14.5h-297v-690h-41zM160 1425v-698h280q205 0 303.5 91.5t98.5 260.5q0 346 -332 346h-350zM410 1567l170 284h41l-170 -284h-41z" />
    <glyph glyph-name="racute" unicode="&#x155;" horiz-adv-x="454" 
d="M104 0v1057h41v-191h5q13 78 89.5 146.5t180.5 68.5h41v-37h-41q-31 0 -64 -9t-72 -35t-69 -65.5t-50 -107t-20 -153.5v-674h-41zM111 1210l170 285h41l-170 -285h-41z" />
    <glyph glyph-name="Rcommaaccent" unicode="&#x156;" horiz-adv-x="985" 
d="M119 0v1462h395q60 0 111 -10.5t99.5 -38t83 -69.5t55 -110t20.5 -155q0 -161 -77.5 -253.5t-215.5 -110.5v-4q69 -9 118 -30t80 -52.5t49 -81.5t25.5 -106t9.5 -136q5 -169 9.5 -212.5t25.5 -92.5h-41q-12 29 -17 48t-10 80.5t-8 180.5q-4 121 -21.5 193t-62.5 115.5
t-111 58t-179 14.5h-297v-690h-41zM160 1425v-698h280q205 0 303.5 91.5t98.5 260.5q0 346 -332 346h-350zM471 -260v158h41v-162q0 -52 -18.5 -78t-67.5 -35v37q29 9 37 24t8 56z" />
    <glyph glyph-name="rcommaaccent" unicode="&#x157;" horiz-adv-x="454" 
d="M104 0v1057h41v-191h5q13 78 89.5 146.5t180.5 68.5h41v-37h-41q-31 0 -64 -9t-72 -35t-69 -65.5t-50 -107t-20 -153.5v-674h-41zM106 -260v158h41v-162q0 -52 -18.5 -78t-67.5 -35v37q29 9 37 24t8 56z" />
    <glyph glyph-name="Rcaron" unicode="&#x158;" horiz-adv-x="985" 
d="M119 0v1462h395q60 0 111 -10.5t99.5 -38t83 -69.5t55 -110t20.5 -155q0 -161 -77.5 -253.5t-215.5 -110.5v-4q69 -9 118 -30t80 -52.5t49 -81.5t25.5 -106t9.5 -136q5 -169 9.5 -212.5t25.5 -92.5h-41q-12 29 -17 48t-10 80.5t-8 180.5q-4 121 -21.5 193t-62.5 115.5
t-111 58t-179 14.5h-297v-690h-41zM160 1425v-698h280q205 0 303.5 91.5t98.5 260.5q0 346 -332 346h-350zM424 1567l-180 284h41l168 -256l168 256h41l-181 -284h-57z" />
    <glyph glyph-name="rcaron" unicode="&#x159;" horiz-adv-x="454" 
d="M104 0v1057h41v-191h5q13 78 89.5 146.5t180.5 68.5h41v-37h-41q-31 0 -64 -9t-72 -35t-69 -65.5t-50 -107t-20 -153.5v-674h-41zM246 1210l-180 285h40l168 -256l168 256h41l-180 -285h-57z" />
    <glyph glyph-name="Sacute" unicode="&#x15a;" horiz-adv-x="948" 
d="M63 383v63h41v-63q0 -170 95 -270.5t264 -100.5q79 0 146.5 23t120.5 68t83.5 119.5t30.5 170.5q0 47 -12 87t-28.5 69t-47.5 55.5t-56.5 43t-69 35t-70.5 28t-75 24.5q-78 25 -126.5 44t-103 51t-85 69t-50.5 94t-20 129q0 45 11 92t39 97t69.5 88.5t108.5 63t149 24.5
t148.5 -22t109 -57.5t71 -84t40.5 -99t12 -104.5v-30h-41v34q0 154 -92 240t-252 86q-81 0 -145.5 -28.5t-104.5 -76t-61 -107t-21 -124.5q0 -73 25.5 -128t68.5 -89.5t99 -61t117.5 -47t123 -41.5t117.5 -51t99 -69t68.5 -101t25.5 -143q0 -59 -14 -115.5t-46.5 -110
t-80 -93.5t-119.5 -64.5t-160 -24.5q-83 0 -151 22.5t-114 61t-77.5 91.5t-45.5 111t-14 122zM455 1567l170 284h41l-170 -284h-41z" />
    <glyph glyph-name="sacute" unicode="&#x15b;" horiz-adv-x="681" 
d="M346 -25q-295 0 -295 324v33h41v-39q0 -281 250 -281q65 0 115 23t78 60.5t41.5 80t13.5 88.5q0 54 -17.5 96t-47.5 69.5t-69 48.5t-82 38t-86 34.5t-82 40.5t-69 53t-47.5 76.5t-17.5 106.5q0 51 19.5 98.5t45.5 73.5q74 82 205 82q73 0 126.5 -25.5t82 -68.5t41 -90.5
t12.5 -101.5v-29h-41v35q0 243 -223 243q-106 0 -166.5 -62t-60.5 -163q0 -66 28.5 -113.5t74.5 -74.5t101 -49t110 -46t101 -55t74.5 -85.5t28.5 -129.5q0 -123 -75.5 -207t-209.5 -84zM317 1210l170 285h41l-170 -285h-41z" />
    <glyph glyph-name="Scircumflex" unicode="&#x15c;" horiz-adv-x="948" 
d="M63 383v63h41v-63q0 -170 95 -270.5t264 -100.5q79 0 146.5 23t120.5 68t83.5 119.5t30.5 170.5q0 47 -12 87t-28.5 69t-47.5 55.5t-56.5 43t-69 35t-70.5 28t-75 24.5q-78 25 -126.5 44t-103 51t-85 69t-50.5 94t-20 129q0 45 11 92t39 97t69.5 88.5t108.5 63t149 24.5
t148.5 -22t109 -57.5t71 -84t40.5 -99t12 -104.5v-30h-41v34q0 154 -92 240t-252 86q-81 0 -145.5 -28.5t-104.5 -76t-61 -107t-21 -124.5q0 -73 25.5 -128t68.5 -89.5t99 -61t117.5 -47t123 -41.5t117.5 -51t99 -69t68.5 -101t25.5 -143q0 -59 -14 -115.5t-46.5 -110
t-80 -93.5t-119.5 -64.5t-160 -24.5q-83 0 -151 22.5t-114 61t-77.5 91.5t-45.5 111t-14 122zM281 1567l180 284h57l180 -284h-41l-168 256l-167 -256h-41z" />
    <glyph glyph-name="scircumflex" unicode="&#x15d;" horiz-adv-x="681" 
d="M346 -25q-295 0 -295 324v33h41v-39q0 -281 250 -281q65 0 115 23t78 60.5t41.5 80t13.5 88.5q0 54 -17.5 96t-47.5 69.5t-69 48.5t-82 38t-86 34.5t-82 40.5t-69 53t-47.5 76.5t-17.5 106.5q0 51 19.5 98.5t45.5 73.5q74 82 205 82q73 0 126.5 -25.5t82 -68.5t41 -90.5
t12.5 -101.5v-29h-41v35q0 243 -223 243q-106 0 -166.5 -62t-60.5 -163q0 -66 28.5 -113.5t74.5 -74.5t101 -49t110 -46t101 -55t74.5 -85.5t28.5 -129.5q0 -123 -75.5 -207t-209.5 -84zM141 1210l181 285h57l180 -285h-41l-168 256l-168 -256h-41z" />
    <glyph glyph-name="Scedilla" unicode="&#x15e;" horiz-adv-x="948" 
d="M63 383v63h41v-63q0 -170 95 -270.5t264 -100.5q79 0 146.5 23t120.5 68t83.5 119.5t30.5 170.5q0 47 -12 87t-28.5 69t-47.5 55.5t-56.5 43t-69 35t-70.5 28t-75 24.5q-78 25 -126.5 44t-103 51t-85 69t-50.5 94t-20 129q0 45 11 92t39 97t69.5 88.5t108.5 63t149 24.5
t148.5 -22t109 -57.5t71 -84t40.5 -99t12 -104.5v-30h-41v34q0 154 -92 240t-252 86q-81 0 -145.5 -28.5t-104.5 -76t-61 -107t-21 -124.5q0 -73 25.5 -128t68.5 -89.5t99 -61t117.5 -47t123 -41.5t117.5 -51t99 -69t68.5 -101t25.5 -143q0 -119 -56.5 -218.5t-171.5 -152.5
q-75 -34 -182 -37l-63 -92l4 -4q32 12 69 12q59 0 100.5 -31t41.5 -89q0 -55 -50.5 -104.5t-140.5 -49.5q-46 0 -94.5 11.5t-67.5 25.5l17 35q68 -35 141 -35q68 0 111 32.5t43 80.5q0 42 -28 65t-81 23q-50 0 -76 -9t-47 -28l-16 20l96 137q-81 6 -151 35
q-111 50 -165.5 148.5t-54.5 224.5z" />
    <glyph glyph-name="Scedilla" unicode="&#xf6c1;" horiz-adv-x="948" 
d="M63 383v63h41v-63q0 -170 95 -270.5t264 -100.5q79 0 146.5 23t120.5 68t83.5 119.5t30.5 170.5q0 47 -12 87t-28.5 69t-47.5 55.5t-56.5 43t-69 35t-70.5 28t-75 24.5q-78 25 -126.5 44t-103 51t-85 69t-50.5 94t-20 129q0 45 11 92t39 97t69.5 88.5t108.5 63t149 24.5
t148.5 -22t109 -57.5t71 -84t40.5 -99t12 -104.5v-30h-41v34q0 154 -92 240t-252 86q-81 0 -145.5 -28.5t-104.5 -76t-61 -107t-21 -124.5q0 -73 25.5 -128t68.5 -89.5t99 -61t117.5 -47t123 -41.5t117.5 -51t99 -69t68.5 -101t25.5 -143q0 -119 -56.5 -218.5t-171.5 -152.5
q-75 -34 -182 -37l-63 -92l4 -4q32 12 69 12q59 0 100.5 -31t41.5 -89q0 -55 -50.5 -104.5t-140.5 -49.5q-46 0 -94.5 11.5t-67.5 25.5l17 35q68 -35 141 -35q68 0 111 32.5t43 80.5q0 42 -28 65t-81 23q-50 0 -76 -9t-47 -28l-16 20l96 137q-81 6 -151 35
q-111 50 -165.5 148.5t-54.5 224.5z" />
    <glyph glyph-name="scedilla" unicode="&#x15f;" horiz-adv-x="681" 
d="M346 -25h-12l-64 -92l4 -4q32 12 70 12q59 0 100 -31t41 -89q0 -55 -50 -104.5t-140 -49.5q-46 0 -94.5 11.5t-67.5 25.5l17 35q68 -35 141 -35q68 0 110.5 32.5t42.5 80.5q0 42 -27.5 65t-80.5 23q-50 0 -76 -9t-47 -28l-16 20l98 142q-244 24 -244 319v33h41v-39
q0 -281 250 -281q65 0 115 23t78 60.5t41.5 80t13.5 88.5q0 54 -17.5 96t-47.5 69.5t-69 48.5t-82 38t-86 34.5t-82 40.5t-69 53t-47.5 76.5t-17.5 106.5q0 51 19.5 98.5t45.5 73.5q74 82 205 82q73 0 126.5 -25.5t82 -68.5t41 -90.5t12.5 -101.5v-29h-41v35q0 243 -223 243
q-106 0 -166.5 -62t-60.5 -163q0 -66 28.5 -113.5t74.5 -74.5t101 -49t110 -46t101 -55t74.5 -85.5t28.5 -129.5q0 -123 -75.5 -207t-209.5 -84z" />
    <glyph glyph-name="scedilla" unicode="&#xf6c2;" horiz-adv-x="681" 
d="M346 -25h-12l-64 -92l4 -4q32 12 70 12q59 0 100 -31t41 -89q0 -55 -50 -104.5t-140 -49.5q-46 0 -94.5 11.5t-67.5 25.5l17 35q68 -35 141 -35q68 0 110.5 32.5t42.5 80.5q0 42 -27.5 65t-80.5 23q-50 0 -76 -9t-47 -28l-16 20l98 142q-244 24 -244 319v33h41v-39
q0 -281 250 -281q65 0 115 23t78 60.5t41.5 80t13.5 88.5q0 54 -17.5 96t-47.5 69.5t-69 48.5t-82 38t-86 34.5t-82 40.5t-69 53t-47.5 76.5t-17.5 106.5q0 51 19.5 98.5t45.5 73.5q74 82 205 82q73 0 126.5 -25.5t82 -68.5t41 -90.5t12.5 -101.5v-29h-41v35q0 243 -223 243
q-106 0 -166.5 -62t-60.5 -163q0 -66 28.5 -113.5t74.5 -74.5t101 -49t110 -46t101 -55t74.5 -85.5t28.5 -129.5q0 -123 -75.5 -207t-209.5 -84z" />
    <glyph glyph-name="Scaron" unicode="&#x160;" horiz-adv-x="948" 
d="M63 383v63h41v-63q0 -170 95 -270.5t264 -100.5q79 0 146.5 23t120.5 68t83.5 119.5t30.5 170.5q0 47 -12 87t-28.5 69t-47.5 55.5t-56.5 43t-69 35t-70.5 28t-75 24.5q-78 25 -126.5 44t-103 51t-85 69t-50.5 94t-20 129q0 45 11 92t39 97t69.5 88.5t108.5 63t149 24.5
t148.5 -22t109 -57.5t71 -84t40.5 -99t12 -104.5v-30h-41v34q0 154 -92 240t-252 86q-81 0 -145.5 -28.5t-104.5 -76t-61 -107t-21 -124.5q0 -73 25.5 -128t68.5 -89.5t99 -61t117.5 -47t123 -41.5t117.5 -51t99 -69t68.5 -101t25.5 -143q0 -59 -14 -115.5t-46.5 -110
t-80 -93.5t-119.5 -64.5t-160 -24.5q-83 0 -151 22.5t-114 61t-77.5 91.5t-45.5 111t-14 122zM449 1567l-181 284h41l168 -256l168 256h41l-180 -284h-57z" />
    <glyph glyph-name="scaron" unicode="&#x161;" horiz-adv-x="681" 
d="M346 -25q-295 0 -295 324v33h41v-39q0 -281 250 -281q65 0 115 23t78 60.5t41.5 80t13.5 88.5q0 54 -17.5 96t-47.5 69.5t-69 48.5t-82 38t-86 34.5t-82 40.5t-69 53t-47.5 76.5t-17.5 106.5q0 51 19.5 98.5t45.5 73.5q74 82 205 82q73 0 126.5 -25.5t82 -68.5t41 -90.5
t12.5 -101.5v-29h-41v35q0 243 -223 243q-106 0 -166.5 -62t-60.5 -163q0 -66 28.5 -113.5t74.5 -74.5t101 -49t110 -46t101 -55t74.5 -85.5t28.5 -129.5q0 -123 -75.5 -207t-209.5 -84zM315 1210l-180 285h41l168 -256l168 256h41l-180 -285h-58z" />
    <glyph glyph-name="Tcommaaccent" unicode="&#x162;" horiz-adv-x="835" 
d="M397 0v1425h-397v37h836v-37h-398v-1425h-41zM397 -260v158h41v-162q0 -52 -18.5 -78t-67.5 -35v37q29 9 37 24t8 56z" />
    <glyph glyph-name="tcommaaccent" unicode="&#x163;" horiz-adv-x="378" 
d="M160 162v858h-137v37h137v327h41v-327h180v-37h-180v-854q0 -74 24.5 -101.5t91.5 -27.5q53 0 80 6v-37q-31 -6 -82 -6q-77 0 -116 36.5t-39 125.5zM252 -260v158h41v-162q0 -52 -18.5 -78t-67.5 -35v37q29 9 37 24t8 56z" />
    <glyph glyph-name="Tcaron" unicode="&#x164;" horiz-adv-x="835" 
d="M397 0v1425h-397v37h836v-37h-398v-1425h-41zM389 1567l-180 284h41l168 -256l168 256h41l-181 -284h-57z" />
    <glyph glyph-name="tcaron" unicode="&#x165;" horiz-adv-x="495" 
d="M340 1178l57 284h45l-69 -284h-33zM160 162v858h-137v37h137v327h41v-327h180v-37h-180v-854q0 -74 24.5 -101.5t91.5 -27.5q53 0 80 6v-37q-31 -6 -82 -6q-77 0 -116 36.5t-39 125.5z" />
    <glyph glyph-name="Tbar" unicode="&#x166;" horiz-adv-x="835" 
d="M397 991v434h-397v37h836v-37h-398v-434h258v-37h-258v-954h-41v954h-258v37h258z" />
    <glyph glyph-name="tbar" unicode="&#x167;" horiz-adv-x="378" 
d="M160 709v311h-137v37h137v327h41v-327h180v-37h-180v-311h196v-37h-196v-506q0 -74 24.5 -101.5t91.5 -27.5q53 0 80 6v-37q-31 -6 -82 -6q-77 0 -116 36.5t-39 125.5v510h-154v37h154z" />
    <glyph glyph-name="Utilde" unicode="&#x168;" horiz-adv-x="985" 
d="M885 1462v-1067q0 -204 -102 -312t-291 -108q-187 0 -289.5 108.5t-102.5 311.5v1067h41v-1061q0 -389 351 -389q352 0 352 389v1061h41zM307 1630h-41q6 58 35.5 106t85.5 48q32 0 62 -18.5t49.5 -40t46 -40t51.5 -18.5q71 0 84 121h41q-5 -30 -11 -51t-19.5 -49
t-37.5 -43t-57 -15q-28 0 -60.5 18.5t-56.5 40t-50.5 40t-43.5 18.5q-53 0 -78 -117z" />
    <glyph glyph-name="utilde" unicode="&#x169;" horiz-adv-x="796" 
d="M692 1057v-1057h-41v190h-4q-13 -78 -89.5 -146.5t-180.5 -68.5q-273 0 -273 322v760h41v-756q0 -85 18 -144t52 -89.5t72.5 -43t89.5 -12.5q30 0 62.5 9t71.5 35t69 65.5t50.5 107.5t20.5 154v674h41zM215 1274h-41q6 57 35.5 105t85.5 48q32 0 62 -18t49.5 -40t46 -40
t51.5 -18q71 0 84 121h41q-5 -30 -11 -51t-19.5 -49t-37.5 -43t-57 -15q-28 0 -60.5 18.5t-56.5 40t-50.5 40t-43.5 18.5q-53 0 -78 -117z" />
    <glyph glyph-name="Umacron" unicode="&#x16a;" horiz-adv-x="985" 
d="M885 1462v-1067q0 -204 -102 -312t-291 -108q-187 0 -289.5 108.5t-102.5 311.5v1067h41v-1061q0 -389 351 -389q352 0 352 389v1061h41zM293 1726h393v-36h-393v36z" />
    <glyph glyph-name="umacron" unicode="&#x16b;" horiz-adv-x="796" 
d="M692 1057v-1057h-41v190h-4q-13 -78 -89.5 -146.5t-180.5 -68.5q-273 0 -273 322v760h41v-756q0 -85 18 -144t52 -89.5t72.5 -43t89.5 -12.5q30 0 62.5 9t71.5 35t69 65.5t50.5 107.5t20.5 154v674h41zM199 1370h393v-37h-393v37z" />
    <glyph glyph-name="Ubreve" unicode="&#x16c;" horiz-adv-x="985" 
d="M885 1462v-1067q0 -204 -102 -312t-291 -108q-187 0 -289.5 108.5t-102.5 311.5v1067h41v-1061q0 -389 351 -389q352 0 352 389v1061h41zM279 1823h40q23 -191 177 -191q44 0 79 19t55.5 49t32 61.5t13.5 61.5h41q-11 -103 -67 -165.5t-156 -62.5q-93 0 -152 62t-63 166z
" />
    <glyph glyph-name="ubreve" unicode="&#x16d;" horiz-adv-x="796" 
d="M692 1057v-1057h-41v190h-4q-13 -78 -89.5 -146.5t-180.5 -68.5q-273 0 -273 322v760h41v-756q0 -85 18 -144t52 -89.5t72.5 -43t89.5 -12.5q30 0 62.5 9t71.5 35t69 65.5t50.5 107.5t20.5 154v674h41zM176 1466h41q11 -92 52.5 -141t123.5 -49q44 0 79 19t55.5 49t32 61
t13.5 61h41q-11 -103 -67 -165t-156 -62q-93 0 -152 61.5t-63 165.5z" />
    <glyph glyph-name="Uring" unicode="&#x16e;" horiz-adv-x="985" 
d="M885 1462v-1067q0 -204 -102 -312t-291 -108q-187 0 -289.5 108.5t-102.5 311.5v1067h41v-1061q0 -389 351 -389q352 0 352 389v1061h41zM317 1692q0 72 51.5 123t123.5 51t123 -51t51 -123q0 -73 -51 -123.5t-123 -50.5q-74 0 -124.5 50.5t-50.5 123.5zM625 1692
q0 59 -38.5 98t-94.5 39t-95 -39t-39 -98t39 -98.5t95 -39.5t94.5 39.5t38.5 98.5z" />
    <glyph glyph-name="uring" unicode="&#x16f;" horiz-adv-x="796" 
d="M692 1057v-1057h-41v190h-4q-13 -78 -89.5 -146.5t-180.5 -68.5q-273 0 -273 322v760h41v-756q0 -85 18 -144t52 -89.5t72.5 -43t89.5 -12.5q30 0 62.5 9t71.5 35t69 65.5t50.5 107.5t20.5 154v674h41zM227 1384q0 72 51 123.5t123 51.5t123 -51.5t51 -123.5
q0 -73 -51 -123.5t-123 -50.5q-73 0 -123.5 50t-50.5 124zM535 1384q0 59 -39 98.5t-95 39.5t-94.5 -39.5t-38.5 -98.5t38.5 -98t94.5 -39t95 39t39 98z" />
    <glyph glyph-name="Uhungarumlaut" unicode="&#x170;" horiz-adv-x="985" 
d="M885 1462v-1067q0 -204 -102 -312t-291 -108q-187 0 -289.5 108.5t-102.5 311.5v1067h41v-1061q0 -389 351 -389q352 0 352 389v1061h41zM598 1567l170 284h41l-170 -284h-41zM334 1567l170 284h41l-170 -284h-41z" />
    <glyph glyph-name="uhungarumlaut" unicode="&#x171;" horiz-adv-x="796" 
d="M692 1057v-1057h-41v190h-4q-13 -78 -89.5 -146.5t-180.5 -68.5q-273 0 -273 322v760h41v-756q0 -85 18 -144t52 -89.5t72.5 -43t89.5 -12.5q30 0 62.5 9t71.5 35t69 65.5t50.5 107.5t20.5 154v674h41zM512 1210l170 285h41l-170 -285h-41zM248 1210l170 285h41
l-170 -285h-41z" />
    <glyph glyph-name="Uogonek" unicode="&#x172;" horiz-adv-x="985" 
d="M621 -303l22 -31q-62 -49 -143 -49q-74 0 -117 36t-43 99q0 67 45 127q38 51 107 96q-187 0 -289.5 108.5t-102.5 311.5v1067h41v-1061q0 -389 351 -389q352 0 352 389v1061h41v-1067q0 -204 -103 -313q-90 -90 -237 -105q-72 -54 -111 -104q-51 -63 -51 -117
q0 -47 32.5 -74.5t84.5 -27.5q60 0 121 43z" />
    <glyph glyph-name="uogonek" unicode="&#x173;" horiz-adv-x="796" 
d="M731 -303l21 -31q-55 -49 -129 -49q-67 0 -105.5 36t-38.5 99q0 130 172 248v190h-4q-13 -78 -89.5 -146.5t-180.5 -68.5q-273 0 -273 322v760h41v-756q0 -85 18 -144t52 -89.5t72.5 -43t89.5 -12.5q30 0 62.5 9t71.5 35t69 65.5t50.5 107.5t20.5 154v674h41v-1057
q-96 -77 -136 -133t-40 -111q0 -47 29.5 -74.5t77.5 -27.5q53 0 108 43z" />
    <glyph glyph-name="Wcircumflex" unicode="&#x174;" horiz-adv-x="1441" 
d="M356 0l-325 1462h41l309 -1396h4l307 1396h58l301 -1396h4l315 1396h41l-332 -1462h-53l-305 1409h-4l-309 -1409h-52zM514 1567l180 284h58l180 -284h-41l-168 256l-168 -256h-41z" />
    <glyph glyph-name="wcircumflex" unicode="&#x175;" horiz-adv-x="1024" 
d="M238 0l-215 1057h40l201 -1020h4l215 1020h60l209 -1020h4l205 1020h40l-221 -1057h-55l-211 1020h-4l-215 -1020h-57zM309 1210l180 285h58l180 -285h-41l-168 256l-168 -256h-41z" />
    <glyph glyph-name="Ycircumflex" unicode="&#x176;" horiz-adv-x="872" 
d="M416 0v616l-410 846h43l387 -803l389 803h41l-409 -846v-616h-41zM227 1567l181 284h57l180 -284h-41l-168 256l-168 -256h-41z" />
    <glyph glyph-name="ycircumflex" unicode="&#x177;" horiz-adv-x="645" 
d="M313 -8l-309 1065h41l287 -1006l-2 2h4l268 1004h39l-299 -1100q-50 -191 -100 -254t-156 -63q-27 0 -55 4v37q40 -5 61 -5q70 0 115 39q52 52 106 277zM123 1210l180 285h57l181 -285h-41l-168 256l-168 -256h-41z" />
    <glyph glyph-name="Ydieresis" unicode="&#x178;" horiz-adv-x="872" 
d="M416 0v616l-410 846h43l387 -803l389 803h41l-409 -846v-616h-41zM545 1604v211h41v-211h-41zM287 1604v211h41v-211h-41z" />
    <glyph glyph-name="Zacute" unicode="&#x179;" horiz-adv-x="909" 
d="M41 0v41l782 1384h-737v37h778v-41l-782 -1384h786v-37h-827zM426 1567l170 284h41l-170 -284h-41z" />
    <glyph glyph-name="zacute" unicode="&#x17a;" horiz-adv-x="606" 
d="M14 37l531 983h-510v37h551v-37l-531 -983h537v-37h-578v37zM276 1210l170 285h41l-170 -285h-41z" />
    <glyph glyph-name="Zdotaccent" unicode="&#x17b;" horiz-adv-x="909" 
d="M41 0v41l782 1384h-737v37h778v-41l-782 -1384h786v-37h-827zM436 1604v211h41v-211h-41z" />
    <glyph glyph-name="zdotaccent" unicode="&#x17c;" horiz-adv-x="606" 
d="M14 37l531 983h-510v37h551v-37l-531 -983h537v-37h-578v37zM285 1247v211h41v-211h-41z" />
    <glyph glyph-name="Zcaron" unicode="&#x17d;" horiz-adv-x="909" 
d="M41 0v41l782 1384h-737v37h778v-41l-782 -1384h786v-37h-827zM430 1567l-180 284h41l168 -256l168 256h41l-181 -284h-57z" />
    <glyph glyph-name="zcaron" unicode="&#x17e;" horiz-adv-x="606" 
d="M14 37l531 983h-510v37h551v-37l-531 -983h537v-37h-578v37zM279 1210l-181 285h41l168 -256l168 256h41l-180 -285h-57z" />
    <glyph glyph-name="florin" unicode="&#x192;" horiz-adv-x="983" 
d="M360 123l138 735h-211l10 37h211l61 301q54 266 271 266q52 0 98 -12l-10 -37q-50 12 -78 12q-195 0 -242 -233l-59 -297h237l-12 -37h-235l-127 -682q-14 -80 -25 -133t-27.5 -115t-32.5 -101t-39.5 -78t-50.5 -60.5t-63 -35t-80 -13.5q-46 0 -98 10l8 39q39 -13 94 -13
q46 0 82.5 21t63 56.5t48.5 94t37 122t31 153.5z" />
    <glyph glyph-name="Scommaaccent" unicode="&#x218;" horiz-adv-x="948" 
d="M63 383v63h41v-63q0 -170 95 -270.5t264 -100.5q79 0 146.5 23t120.5 68t83.5 119.5t30.5 170.5q0 47 -12 87t-28.5 69t-47.5 55.5t-56.5 43t-69 35t-70.5 28t-75 24.5q-78 25 -126.5 44t-103 51t-85 69t-50.5 94t-20 129q0 45 11 92t39 97t69.5 88.5t108.5 63t149 24.5
t148.5 -22t109 -57.5t71 -84t40.5 -99t12 -104.5v-30h-41v34q0 154 -92 240t-252 86q-81 0 -145.5 -28.5t-104.5 -76t-61 -107t-21 -124.5q0 -73 25.5 -128t68.5 -89.5t99 -61t117.5 -47t123 -41.5t117.5 -51t99 -69t68.5 -101t25.5 -143q0 -59 -14 -115.5t-46.5 -110
t-80 -93.5t-119.5 -64.5t-160 -24.5q-83 0 -151 22.5t-114 61t-77.5 91.5t-45.5 111t-14 122zM451 -260v158h41v-162q0 -52 -18.5 -78t-67.5 -35v37q29 9 37 24t8 56z" />
    <glyph glyph-name="scommaaccent" unicode="&#x219;" horiz-adv-x="681" 
d="M346 -25q-295 0 -295 324v33h41v-39q0 -281 250 -281q65 0 115 23t78 60.5t41.5 80t13.5 88.5q0 54 -17.5 96t-47.5 69.5t-69 48.5t-82 38t-86 34.5t-82 40.5t-69 53t-47.5 76.5t-17.5 106.5q0 51 19.5 98.5t45.5 73.5q74 82 205 82q73 0 126.5 -25.5t82 -68.5t41 -90.5
t12.5 -101.5v-29h-41v35q0 243 -223 243q-106 0 -166.5 -62t-60.5 -163q0 -66 28.5 -113.5t74.5 -74.5t101 -49t110 -46t101 -55t74.5 -85.5t28.5 -129.5q0 -123 -75.5 -207t-209.5 -84zM315 -260v158h41v-162q0 -52 -18.5 -78t-67.5 -35v37q29 9 37 24t8 56z" />
    <glyph glyph-name="uni021A" unicode="&#x21a;" horiz-adv-x="835" 
d="M397 0v1425h-397v37h836v-37h-398v-1425h-41zM397 -260v158h41v-162q0 -52 -18.5 -78t-67.5 -35v37q29 9 37 24t8 56z" />
    <glyph glyph-name="uni021B" unicode="&#x21b;" horiz-adv-x="378" 
d="M160 162v858h-137v37h137v327h41v-327h180v-37h-180v-854q0 -74 24.5 -101.5t91.5 -27.5q53 0 80 6v-37q-31 -6 -82 -6q-77 0 -116 36.5t-39 125.5zM252 -260v158h41v-162q0 -52 -18.5 -78t-67.5 -35v37q29 9 37 24t8 56z" />
    <glyph glyph-name="circumflex" unicode="&#x2c6;" 
d="M-76 1210l180 285h58l180 -285h-41l-168 256l-168 -256h-41z" />
    <glyph glyph-name="caron" unicode="&#x2c7;" 
d="M104 1210l-180 285h41l168 -256l168 256h41l-180 -285h-58z" />
    <glyph glyph-name="uni02C9" unicode="&#x2c9;" 
d="M-63 1370h393v-37h-393v37z" />
    <glyph glyph-name="breve" unicode="&#x2d8;" 
d="M-86 1466h41q11 -92 52.5 -141t123.5 -49q44 0 79 19t55.5 49t32 61t13.5 61h41q-11 -103 -67 -165t-156 -62q-93 0 -152 61.5t-63 165.5z" />
    <glyph glyph-name="dotaccent" unicode="&#x2d9;" 
d="M113 1247v211h41v-211h-41z" />
    <glyph glyph-name="ring" unicode="&#x2da;" 
d="M-41 1384q0 72 51 123.5t123 51.5t123 -51.5t51 -123.5q0 -73 -51 -123.5t-123 -50.5q-73 0 -123.5 50t-50.5 124zM266 1384q0 59 -38.5 98.5t-94.5 39.5t-94.5 -39.5t-38.5 -98.5t38.5 -98t94.5 -39t94.5 39t38.5 98z" />
    <glyph glyph-name="ogonek" unicode="&#x2db;" 
d="M311 -303l23 -31q-62 -49 -144 -49q-74 0 -116.5 36t-42.5 99q0 132 190 248h47q-194 -139 -194 -244q0 -47 32 -74.5t84 -27.5q60 0 121 43z" />
    <glyph glyph-name="tilde" unicode="&#x2dc;" 
d="M-53 1274h-41q6 57 35.5 105t85.5 48q32 0 62 -18t49.5 -40t46 -40t51.5 -18q39 0 57.5 31t25.5 90h41q-4 -23 -7.5 -39.5t-13 -41t-22 -39.5t-33.5 -26.5t-48 -11.5q-28 0 -60.5 18.5t-56.5 40t-50.5 40t-43.5 18.5q-53 0 -78 -117z" />
    <glyph glyph-name="hungarumlaut" unicode="&#x2dd;" 
d="M190 1210l170 285h41l-170 -285h-41zM-74 1210l170 285h41l-170 -285h-41z" />
    <glyph glyph-name="uni0394" unicode="&#x394;" horiz-adv-x="1251" 
d="M1174 37l-553 1339l-545 -1339h1098zM1229 0h-1206l591 1458h15z" />
    <glyph glyph-name="uni03A9" unicode="&#x3a9;" horiz-adv-x="1478" 
d="M1356 0h-441v311q191 40 296.5 185.5t105.5 345.5q0 118 -44.5 227.5t-121 191t-184.5 130.5t-228 49q-159 0 -292 -82.5t-208 -220t-75 -295.5q0 -128 45.5 -240.5t139 -192t220.5 -98.5v-311h-444v39h405v240q-196 53 -300.5 206.5t-104.5 362.5q0 168 80.5 312.5
t222.5 230.5t311 86q171 0 313 -85.5t222 -230.5t80 -315q0 -212 -102 -360.5t-300 -204.5v-242h404v-39z" />
    <glyph glyph-name="uni03BC" unicode="&#x3bc;" horiz-adv-x="796" 
d="M692 1057v-1057h-41v190h-4q-13 -78 -89.5 -146.5t-180.5 -68.5q-189 0 -227 144h-5v-479h-41v657v760h41v-756q0 -85 18 -144t52 -89.5t72.5 -43t89.5 -12.5q30 0 62.5 9t71.5 35t69 65.5t50.5 107.5t20.5 154v674h41z" />
    <glyph glyph-name="pi" unicode="&#x3c0;" horiz-adv-x="1138" 
d="M1059 61v-43q-42 -26 -90 -26q-28 0 -49 7t-33 23t-19.5 29.5t-10 41t-3 41t-0.5 44.5v713h-610v-891h-37v891h-148v37h988v-37h-156v-719q0 -79 14 -106q18 -37 64 -37q52 0 90 32z" />
    <glyph glyph-name="endash" unicode="&#x2013;" horiz-adv-x="1024" 
d="M0 575h1024v-36h-1024v36z" />
    <glyph glyph-name="emdash" unicode="&#x2014;" horiz-adv-x="2048" 
d="M2048 539h-2048v36h2048v-36z" />
    <glyph glyph-name="quoteleft" unicode="&#x2018;" horiz-adv-x="344" 
d="M150 1014v211q0 162 86 237v-63l-8 -11q-7 -10 -12 -21t-12 -30t-10.5 -49t-3.5 -67v-207h-40z" />
    <glyph glyph-name="quoteright" unicode="&#x2019;" horiz-adv-x="344" 
d="M154 1255v207h41v-211q0 -162 -86 -237v63q1 2 9.5 16t15.5 29.5t13.5 51t6.5 81.5z" />
    <glyph glyph-name="quotesinglbase" unicode="&#x201a;" horiz-adv-x="344" 
d="M154 -6v207h41v-211q0 -163 -86 -238v64q1 2 9.5 16t15.5 29.5t13.5 51t6.5 81.5z" />
    <glyph glyph-name="quotedblleft" unicode="&#x201c;" horiz-adv-x="530" 
d="M131 1014v211q0 162 86 237v-63q-1 -1 -6 -8.5t-9 -14.5t-10 -22t-10 -32t-7 -43.5t-3 -57.5v-207h-41zM313 1014v211q0 162 86 237v-63q-1 -1 -6 -8.5t-9 -14.5t-10 -22t-10 -32t-7 -43.5t-3 -57.5v-207h-41z" />
    <glyph glyph-name="quotedblright" unicode="&#x201d;" horiz-adv-x="530" 
d="M358 1255v207h41v-211q0 -162 -86 -237v63q1 2 9.5 16t15.5 29.5t13.5 51t6.5 81.5zM176 1255v207h41v-211q0 -162 -86 -237v63q1 2 9.5 16t15.5 29.5t13.5 51t6.5 81.5z" />
    <glyph glyph-name="quotedblbase" unicode="&#x201e;" horiz-adv-x="530" 
d="M358 -6v207h41v-211q0 -163 -86 -238v64q1 2 9.5 16t15.5 29.5t13.5 51t6.5 81.5zM176 -6v207h41v-211q0 -163 -86 -238v64q1 2 9.5 16t15.5 29.5t13.5 51t6.5 81.5z" />
    <glyph glyph-name="dagger" unicode="&#x2020;" horiz-adv-x="983" 
d="M471 -319v1249h-375v37h375v495h41v-495h375v-37h-375v-1249h-41z" />
    <glyph glyph-name="daggerdbl" unicode="&#x2021;" horiz-adv-x="983" 
d="M471 -319v448h-375v37h375v811h-375v37h375v448h41v-448h375v-37h-375v-811h375v-37h-375v-448h-41z" />
    <glyph glyph-name="bullet" unicode="&#x2022;" horiz-adv-x="1024" 
d="M147 731q0 152 106.5 258.5t258.5 106.5t258.5 -106.5t106.5 -258.5t-106.5 -258t-258.5 -106t-258.5 106t-106.5 258z" />
    <glyph glyph-name="ellipsis" unicode="&#x2026;" horiz-adv-x="2048" 
d="M1686 0v201h40v-201h-40zM1004 0v201h40v-201h-40zM322 0v201h40v-201h-40z" />
    <glyph glyph-name="perthousand" unicode="&#x2030;" horiz-adv-x="1896" 
d="M330 -37l610 1499h41l-610 -1499h-41zM1745 326q0 56 -4.5 98.5t-17.5 85t-35 70t-59.5 44.5t-88.5 17q-74 0 -121 -44.5t-65.5 -112t-18.5 -158.5q0 -314 205 -314q104 0 154.5 87.5t50.5 226.5zM1294 326q0 172 66 262t180 90q254 0 246 -352q-2 -83 -19.5 -147.5
t-43 -102t-59.5 -61.5t-63.5 -32t-60.5 -8q-121 0 -183.5 89t-62.5 262zM1163 326q0 56 -4.5 98.5t-17.5 85t-35 70t-59.5 44.5t-88.5 17q-56 0 -96.5 -25t-63.5 -69.5t-33.5 -99t-10.5 -121.5q0 -314 204 -314q104 0 154.5 87.5t50.5 226.5zM713 326q0 173 66 262.5
t179 89.5q254 0 246 -352q-2 -83 -19.5 -147.5t-43 -102t-59.5 -61.5t-63.5 -32t-60.5 -8q-121 0 -183 89t-62 262zM561 1098q0 56 -4.5 98.5t-17.5 85t-35 70t-59.5 44.5t-88.5 17q-56 0 -96.5 -25t-63.5 -69.5t-33.5 -99t-10.5 -121.5q0 -314 204 -314q104 0 154.5 87.5
t50.5 226.5zM111 1098q0 173 66 262.5t179 89.5q254 0 246 -352q-2 -83 -19.5 -147.5t-43 -102t-59.5 -61t-63.5 -31.5t-60.5 -8q-245 0 -245 350z" />
    <glyph glyph-name="guilsinglleft" unicode="&#x2039;" horiz-adv-x="454" 
d="M328 262l-201 275v41l201 274v-59l-172 -236l172 -235v-60z" />
    <glyph glyph-name="guilsinglright" unicode="&#x203a;" horiz-adv-x="454" 
d="M127 317l172 240l-172 240v55h4l197 -274v-41l-197 -275h-4v55z" />
    <glyph glyph-name="fraction" unicode="&#x2044;" horiz-adv-x="342" 
d="M-340 -61l981 1548h41l-981 -1548h-41z" />
    <glyph glyph-name="Euro" unicode="&#x20ac;" horiz-adv-x="983" 
d="M901 168v-57q-117 -129 -287 -129q-96 0 -172.5 37.5t-124 96.5t-80 141.5t-47.5 162.5t-20 170h-98l14 35h84q-4 70 -4 106v43q0 17 4 45h-100l16 35h86q49 598 453 598q143 0 268 -96l-21 -35q-110 94 -249 94q-88 0 -157.5 -35t-113.5 -89.5t-74 -131t-44 -150
t-19 -155.5h545l-15 -35h-532q-4 -50 -4 -71q0 -20 1 -61t1 -62h487l-16 -35h-469q5 -84 17.5 -156.5t41.5 -152t71 -135t112 -92t159 -36.5q90 0 157 37t130 113z" />
    <glyph glyph-name="afii61289" unicode="&#x2113;" horiz-adv-x="1024" 
d="M586 -29q-41 0 -76.5 12t-65.5 38t-47.5 73.5t-17.5 112.5v336l-125 -146h-4l-21 21l150 170v561q0 161 55 244.5t137 83.5q73 0 119.5 -61.5t46.5 -170.5q0 -287 -321 -670v-362q0 -60 16 -103t43 -64.5t55 -30.5t60 -9q101 0 180 82h4l19 -22q-92 -95 -207 -95z
M702 1239q0 91 -38.5 147t-92.5 56q-65 0 -110 -72.5t-45 -220.5v-528q134 162 210 325t76 293z" />
    <glyph glyph-name="trademark" unicode="&#x2122;" horiz-adv-x="2048" 
d="M1751 618v807h-4l-342 -807h-39l-340 807h-4v-807h-41v844h72l333 -790l336 790h70v-844h-41zM483 618v807h-305v37h651v-37h-305v-807h-41z" />
    <glyph glyph-name="Omega" unicode="&#x2126;" horiz-adv-x="1478" 
d="M1356 0h-441v311q191 40 296.5 185.5t105.5 345.5q0 118 -44.5 227.5t-121 191t-184.5 130.5t-228 49q-159 0 -292 -82.5t-208 -220t-75 -295.5q0 -128 45.5 -240.5t139 -192t220.5 -98.5v-311h-444v39h405v240q-196 53 -300.5 206.5t-104.5 362.5q0 168 80.5 312.5
t222.5 230.5t311 86q171 0 313 -85.5t222 -230.5t80 -315q0 -212 -102 -360.5t-300 -204.5v-242h404v-39z" />
    <glyph glyph-name="estimated" unicode="&#x212e;" horiz-adv-x="1228" 
d="M1149 530h-827v-370q121 -121 296 -121q128 0 224 59t172 187l71 -43q-95 -148 -201.5 -212.5t-265.5 -64.5q-157 0 -278.5 75.5t-185.5 203.5t-64 286q0 159 64 287t185.5 203.5t278.5 75.5q235 0 382 -158t149 -408zM322 604h596v297q-129 123 -302 123
q-171 0 -294 -123v-297z" />
    <glyph glyph-name="partialdiff" unicode="&#x2202;" horiz-adv-x="909" 
d="M788 600q-77 108 -165.5 167.5t-204.5 59.5q-80 0 -143.5 -35t-102 -93t-58.5 -128.5t-20 -146.5q0 -70 20.5 -142t58.5 -134.5t100 -102t137 -39.5q64 0 120.5 29t97 78t72 110t50.5 128.5t28.5 130.5t9.5 118zM836 766q0 -64 -4 -129.5t-16.5 -145.5t-32 -151
t-53 -139.5t-77 -118t-106.5 -79.5t-139 -30q-82 0 -151.5 42.5t-112.5 110t-67 146.5t-24 156q0 84 24 161t69.5 138.5t117.5 98t160 36.5q109 0 207 -58.5t162 -154.5q4 94 4 144q0 65 -8 133t-25 143t-48.5 139.5t-73.5 117.5t-104 83.5t-137 30.5q-69 0 -123 -22.5
t-122 -71.5l-23 32q70 48 132.5 72.5t135.5 24.5t135 -25t105.5 -67t78 -101t56 -122t35.5 -134t19.5 -134t5.5 -126z" />
    <glyph glyph-name="Delta" unicode="&#x2206;" horiz-adv-x="1251" 
d="M1174 37l-553 1339l-545 -1339h1098zM1229 0h-1206l591 1458h15z" />
    <glyph glyph-name="product" unicode="&#x220f;" horiz-adv-x="1441" 
d="M1251 -438h-37v2011h-987v-2011h-37v2048h1061v-2048z" />
    <glyph glyph-name="summation" unicode="&#x2211;" horiz-adv-x="1214" 
d="M1122 -438h-1032v37l698 995l-667 979v37h981v-37h-934l668 -979l-699 -995h985v-37z" />
    <glyph glyph-name="minus" unicode="&#x2212;" horiz-adv-x="1228" 
d="M1133 500h-1037v37h1037v-37z" />
    <glyph glyph-name="uni2215" unicode="&#x2215;" horiz-adv-x="342" 
d="M-340 -61l981 1548h41l-981 -1548h-41z" />
    <glyph glyph-name="uni2219" unicode="&#x2219;" horiz-adv-x="491" 
d="M170 705q0 31 22.5 53t53.5 22t53.5 -22t22.5 -53t-22.5 -53.5t-53.5 -22.5t-53.5 22.5t-22.5 53.5z" />
    <glyph glyph-name="radical" unicode="&#x221a;" horiz-adv-x="909" 
d="M909 1591l-448 -2040h-21l-385 791l-90 -43l-12 31l119 57l368 -764l432 1970z" />
    <glyph glyph-name="infinity" unicode="&#x221e;" horiz-adv-x="1478" 
d="M715 492q-46 43 -81 72.5t-87.5 67.5t-104.5 58.5t-98 20.5q-89 0 -143 -62.5t-54 -152.5q0 -98 55 -157.5t152 -59.5q50 0 99.5 18t101 56.5t80 63.5t80.5 75zM1331 496q0 91 -54 153t-144 62q-43 0 -91 -18.5t-97.5 -53t-84 -62.5t-78.5 -67q-12 -11 -18 -16
q106 -102 155 -138q109 -80 201 -80q101 0 156 60t55 160zM1368 496q0 -114 -66 -185t-180 -71q-47 0 -89.5 12.5t-84.5 40.5t-69 49.5t-73 64t-67 60.5q-26 -21 -83.5 -73t-90.5 -78t-90 -50t-117 -24q-116 0 -181.5 68.5t-65.5 185.5q0 106 67.5 179t171.5 73
q35 0 73.5 -12t67 -26t71 -44.5t61 -46t63 -53.5t53.5 -46q57 51 86.5 76t88.5 68t111.5 63.5t100.5 20.5q107 0 174.5 -72t67.5 -180z" />
    <glyph glyph-name="integral" unicode="&#x222b;" horiz-adv-x="1099" 
d="M733 1552q0 -20 -13.5 -32.5t-33.5 -12.5q-15 0 -23.5 4t-21 19.5t-16.5 19.5q-1 0 -5.5 2t-5.5 2q-58 0 -86 -192q-8 -90 -8 -270v-998q0 -12 1 -50t0.5 -67t-1.5 -75t-5.5 -81t-12 -77t-21 -72t-31.5 -56.5t-45.5 -40t-60.5 -13.5q-26 0 -45.5 15t-19.5 40
q0 20 12.5 33.5t32.5 13.5q18 0 31.5 -12t23 -23.5t16.5 -11.5q86 0 86 369v51v1038q0 10 -1 48.5t-0.5 67t1.5 75t6 81.5t12.5 77.5t21.5 73t32 57.5t45.5 41t60.5 14q30 0 52 -14.5t22 -43.5z" />
    <glyph glyph-name="approxequal" unicode="&#x2248;" horiz-adv-x="1214" 
d="M1065 430h37q-42 -134 -144 -184q-68 -29 -92 -23q-189 45 -284 76q-5 2 -35.5 13t-50 17.5t-53.5 17.5t-58 17.5t-50.5 11.5t-43.5 5q-66 0 -119.5 -51t-75.5 -119h-37q42 134 144 184q66 29 90 23q12 -3 84.5 -19.5t111.5 -27.5q21 -6 105 -37t157.5 -52.5t114.5 -21.5
q70 0 123.5 49.5t75.5 120.5zM1065 770h37q-42 -134 -144 -184q-68 -29 -92 -23q-178 42 -284 76q-12 3 -79 26.5t-124.5 39.5t-87.5 16q-67 0 -119 -50t-76 -120h-37q27 86 88.5 146.5t145.5 60.5q12 0 27 -2.5t35 -7.5t30 -7l-92 17q134 -29 309 -88q191 -72 264 -72
q70 0 123.5 50.5t75.5 121.5z" />
    <glyph glyph-name="notequal" unicode="&#x2260;" horiz-adv-x="1214" 
d="M1100 287h-584l-154 -287l-32 16l145 271h-362v37h381l182 340h-563v36h581l156 287l33 -16l-146 -271h363v-36h-383l-180 -340h563v-37z" />
    <glyph glyph-name="lessequal" unicode="&#x2264;" horiz-adv-x="1214" 
d="M1100 -6h-987v37h987v-37zM1100 113l-987 419v37l987 424v-39l-944 -403l944 -399v-39z" />
    <glyph glyph-name="greaterequal" unicode="&#x2265;" horiz-adv-x="1214" 
d="M1100 -6h-987v37h987v-37zM1100 532l-987 -419v39l944 399l-944 403v39l987 -424v-37z" />
    <glyph glyph-name="lozenge" unicode="&#x25ca;" horiz-adv-x="1214" 
d="M924 729l-318 731l-315 -731l315 -731zM965 729l-351 -801h-16l-348 801l348 801h16z" />
    <glyph glyph-name="commaaccent" unicode="&#xf004;" horiz-adv-x="491" 
d="M225 -260v158h41v-162q0 -52 -18.5 -78t-67.5 -35v37q29 9 37 24t8 56z" />
    <glyph glyph-name="commaaccent" unicode="&#xf6c3;" horiz-adv-x="491" 
d="M225 -260v158h41v-162q0 -52 -18.5 -78t-67.5 -35v37q29 9 37 24t8 56z" />
    <glyph glyph-name="dotlessj" unicode="&#xf6be;" 
d="M113 -154v1211h41v-1207q0 -117 -45 -163.5t-140 -46.5h-26q-21 0 -27 2v36q10 -2 31 -2h24q79 0 110.5 37t31.5 133z" />
    <glyph glyph-name="dotlessj" unicode="&#xfb0f;" 
d="M113 -154v1211h41v-1207q0 -117 -45 -163.5t-140 -46.5h-26q-21 0 -27 2v36q10 -2 31 -2h24q79 0 110.5 37t31.5 133z" />
    <glyph glyph-name="uniF8FF" unicode="&#xf8ff;" horiz-adv-x="1048" 
d="M455 240h114v137h-114v-137zM461 479h94q0 107 12 148q11 38 88 106q75 69 102 123t27 123q0 120 -72 194t-182 74q-115 0 -189 -69.5t-87 -210.5l102 -17q11 100 56 147.5t112 47.5q64 0 110 -50.5t46 -123.5q0 -41 -19.5 -75.5t-82.5 -94.5q-67 -67 -95 -121
q-26 -51 -26 -166zM946 102h-844v1264h844v-1264zM1049 1470h-1049v-1470h1049v1470z" />
    <glyph glyph-name="commaaccent.alt" horiz-adv-x="491" 
d="M256 1462v-157h-41v161q0 52 18.5 78t67.5 35v-37q-29 -9 -37 -24t-8 -56z" />
    <glyph glyph-name="caron.alt" 
d="M119 1178l57 284h45l-69 -284h-33z" />
    <glyph glyph-name="grave.cap" 
d="M168 1567l-170 284h41l170 -284h-41z" />
    <glyph glyph-name="acute.cap" 
d="M57 1567l170 284h41l-170 -284h-41z" />
    <glyph glyph-name="circumflex.cap" 
d="M-76 1567l180 284h58l180 -284h-41l-168 256l-168 -256h-41z" />
    <glyph glyph-name="caron.cap" 
d="M104 1567l-180 284h41l168 -256l168 256h41l-180 -284h-58z" />
    <glyph glyph-name="tilde.cap" 
d="M-53 1630h-41q6 58 35.5 106t85.5 48q32 0 62 -18.5t49.5 -40t46 -40t51.5 -18.5q39 0 57.5 31t25.5 90h41q-4 -23 -7.5 -39.5t-13 -41t-22 -39.5t-33.5 -26.5t-48 -11.5q-28 0 -60.5 18.5t-56.5 40t-50.5 40t-43.5 18.5q-53 0 -78 -117z" />
    <glyph glyph-name="dieresis.cap" 
d="M242 1604v211h41v-211h-41zM-16 1604v211h41v-211h-41z" />
    <glyph glyph-name="macron.cap" 
d="M-63 1726h393v-36h-393v36z" />
    <glyph glyph-name="breve.cap" 
d="M-86 1823h41q11 -92 52.5 -141.5t123.5 -49.5q44 0 79 19t55.5 49t32 61.5t13.5 61.5h41q-11 -103 -67 -165.5t-156 -62.5q-93 0 -152 62t-63 166z" />
    <glyph glyph-name="ring.cap" 
d="M-41 1692q0 72 51 123t123 51t123 -51t51 -123q0 -73 -51 -123.5t-123 -50.5q-73 0 -123.5 50t-50.5 124zM266 1692q0 59 -38.5 98t-94.5 39t-94.5 -39t-38.5 -98t38.5 -98.5t94.5 -39.5t94.5 39.5t38.5 98.5z" />
    <glyph glyph-name="hungarumlaut.cap" 
d="M190 1567l170 284h41l-170 -284h-41zM-74 1567l170 284h41l-170 -284h-41z" />
    <glyph glyph-name="dotaccent.cap" 
d="M113 1604v211h41v-211h-41z" />
    </font>
</defs>
</svg>
